<svg xmlns="http://www.w3.org/2000/svg" viewBox="0 0 119.62 49.53">
  <g>
    <g>
      <path d="M83.61,41.7H71.52c0,2.68,1.56,4.71,4.23,4.71a4.93,4.93,0,0,0,4.47-2.88l3,1.19c-1.73,3.35-3.73,4.81-7.49,4.81-5.62,0-8-4.74-8-8.81s2.34-8.81,8-8.81c5.45,0,7.86,4.44,7.86,8.26V41.7Zm-12-2.95h8.3A4,4,0,0,0,75.75,35,4.15,4.15,0,0,0,71.58,38.75Z" style="fill: #95a1ab"/>
      <path d="M85.78,40.72A9,9,0,0,1,88,34.45a8.63,8.63,0,0,1,12.23,0,9.06,9.06,0,0,1,2.3,6.27,9.06,9.06,0,0,1-2.3,6.27A8.63,8.63,0,0,1,88,47,9,9,0,0,1,85.78,40.72Zm3.73,0a6.69,6.69,0,0,0,1.22,4,4.09,4.09,0,0,0,3.45,1.66,4,4,0,0,0,3.42-1.66,6.49,6.49,0,0,0,1.25-4,6.39,6.39,0,0,0-1.25-4A4,4,0,0,0,94.18,35a4.12,4.12,0,0,0-3.45,1.69A6.59,6.59,0,0,0,89.5,40.72Z" style="fill: #95a1ab"/>
      <path d="M105.56,32.18h3.52V35.1a6.35,6.35,0,0,1,5.52-3.18c3,0,5,1.86,5,5.11V49.25h-3.52V38.14c0-2.07-.88-3.12-2.64-3.12a3.74,3.74,0,0,0-3.08,2,9.72,9.72,0,0,0-1.29,5.32v6.91h-3.52V32.18Z" style="fill: #95a1ab"/>
      <polygon points="60.87 26.71 60.87 42.62 51.82 26.71 47.82 26.71 47.82 49.26 51.55 49.26 51.55 33.42 60.6 49.26 60.6 49.25 60.6 49.26 64.6 49.26 64.6 26.71 60.87 26.71" style="fill: #95a1ab"/>
    </g>
    <path d="M38.65,21.62l-25.76,12V12L38.65,0V21.62ZM0,37.24l25.76,12V27.63L0,15.62V37.24Z" style="fill: #95a1ab"/>
  </g>
</svg>
