<svg xmlns="http://www.w3.org/2000/svg" viewBox="0 0 375 195.12">
  <g>
    <rect x="139.52" y="66.2" width="95.96" height="57.85" style="fill: #ff6b31;opacity: 0.1"/>
    <path d="M297.72,28.56V161.06H77.28V28.56H297.72m0.5-.5H76.78V161.56H298.22V28.06h0Z" transform="translate(0 0.26)" style="fill: #94a0ab"/>
    <g style="opacity: 0.1">
      <rect x="76.78" y="28.32" width="221.44" height="133.49" style="fill: #94a0ab"/>
    </g>
    <rect x="138.24" y="65.37" width="98.52" height="59.39" style="fill: none;stroke: #94a0ab;stroke-linecap: round;stroke-linejoin: round;stroke-width: 0.25px"/>
    <g>
      <line x1="248.96" y1="124.77" x2="248.96" y2="124.77" style="fill: none;stroke: #94a0ab;stroke-linecap: round;stroke-miterlimit: 10"/>
      <line x1="248.96" y1="123.76" x2="248.96" y2="65.88" style="fill: none;stroke: #94a0ab;stroke-linecap: round;stroke-miterlimit: 10;stroke-dasharray: 0.001,1.00668203830719"/>
      <line x1="248.96" y1="65.37" x2="248.96" y2="65.37" style="fill: none;stroke: #94a0ab;stroke-linecap: round;stroke-miterlimit: 10"/>
      <line x1="249.95" y1="65.37" x2="346.98" y2="65.37" style="fill: none;stroke: #94a0ab;stroke-linecap: round;stroke-miterlimit: 10;stroke-dasharray: 0.001,0.9951793551445007"/>
      <line x1="347.48" y1="65.37" x2="347.48" y2="65.37" style="fill: none;stroke: #94a0ab;stroke-linecap: round;stroke-miterlimit: 10"/>
      <line x1="347.48" y1="66.38" x2="347.48" y2="124.26" style="fill: none;stroke: #94a0ab;stroke-linecap: round;stroke-miterlimit: 10;stroke-dasharray: 0.001,1.00668203830719"/>
      <line x1="347.48" y1="124.77" x2="347.48" y2="124.77" style="fill: none;stroke: #94a0ab;stroke-linecap: round;stroke-miterlimit: 10"/>
      <line x1="346.49" y1="124.77" x2="249.46" y2="124.77" style="fill: none;stroke: #94a0ab;stroke-linecap: round;stroke-miterlimit: 10;stroke-dasharray: 0.001,0.9951792359352112"/>
    </g>
    <g>
      <line x1="27.52" y1="124.77" x2="27.52" y2="124.77" style="fill: none;stroke: #94a0ab;stroke-linecap: round;stroke-miterlimit: 10;stroke-width: 0.5px"/>
      <line x1="27.52" y1="123.76" x2="27.52" y2="65.88" style="fill: none;stroke: #94a0ab;stroke-linecap: round;stroke-miterlimit: 10;stroke-width: 0.5px;stroke-dasharray: 0.001,1.00668203830719"/>
      <line x1="27.52" y1="65.37" x2="27.52" y2="65.37" style="fill: none;stroke: #94a0ab;stroke-linecap: round;stroke-miterlimit: 10;stroke-width: 0.5px"/>
      <line x1="28.51" y1="65.37" x2="125.54" y2="65.37" style="fill: none;stroke: #94a0ab;stroke-linecap: round;stroke-miterlimit: 10;stroke-width: 0.5px;stroke-dasharray: 0.001,0.9951793551445007"/>
      <line x1="126.04" y1="65.37" x2="126.04" y2="65.37" style="fill: none;stroke: #94a0ab;stroke-linecap: round;stroke-miterlimit: 10;stroke-width: 0.5px"/>
      <line x1="126.04" y1="66.38" x2="126.04" y2="124.26" style="fill: none;stroke: #94a0ab;stroke-linecap: round;stroke-miterlimit: 10;stroke-width: 0.5px;stroke-dasharray: 0.001,1.00668203830719"/>
      <line x1="126.04" y1="124.77" x2="126.04" y2="124.77" style="fill: none;stroke: #94a0ab;stroke-linecap: round;stroke-miterlimit: 10;stroke-width: 0.5px"/>
      <line x1="125.05" y1="124.77" x2="28.02" y2="124.77" style="fill: none;stroke: #94a0ab;stroke-linecap: round;stroke-miterlimit: 10;stroke-width: 0.5px;stroke-dasharray: 0.001,0.9951792359352112"/>
    </g>
    <rect x="27.52" y="65.37" width="98.52" height="59.39" style="fill: #ff6b31;opacity: 0.1"/>
    <rect x="27.52" y="65.37" width="98.52" height="59.39" style="fill: none;stroke: #ff6b31;stroke-miterlimit: 10;opacity: 0.8"/>
    <g>
      <line x1="369.7" y1="95.07" x2="5.3" y2="95.07" style="fill: none;stroke: #94a0ab;stroke-linecap: round;stroke-linejoin: round;stroke-width: 1.5px;stroke-dasharray: 0.001,3.5"/>
      <polygon points="375 95.07 367.54 92.02 369.31 95.07 367.54 98.12 375 95.07" style="fill: #94a0ab"/>
      <polygon points="0 95.07 7.46 92.02 5.69 95.07 7.46 98.12 0 95.07" style="fill: #94a0ab"/>
    </g>
    <g>
      <path d="M101.19,115.9v2h-0.61v-2H98.64v-0.6h1.93v-2h0.61v2h1.93v0.6h-1.93Z" transform="translate(0 0.26)" style="fill: #94a0ab"/>
      <path d="M107.8,119.16c-1.46,0-2.63-1-2.63-3.49v0c0-2.21,1.15-3.49,2.63-3.49a2.27,2.27,0,0,1,2.14,1.47l-0.68.3a1.71,1.71,0,0,0-1.46-1.12c-1,0-1.82,1-1.82,2.88a2.23,2.23,0,0,1,2-1.11,2.13,2.13,0,0,1,2.26,2.25A2.32,2.32,0,0,1,107.8,119.16Zm-1.67-2.33a1.69,1.69,0,0,0,1.67,1.68,1.54,1.54,0,0,0,1.58-1.68,1.47,1.47,0,0,0-1.5-1.59A1.58,1.58,0,0,0,106.13,116.82Z" transform="translate(0 0.26)" style="fill: #94a0ab"/>
      <path d="M112.06,117.9h1V119h-1V117.9Z" transform="translate(0 0.26)" style="fill: #94a0ab"/>
      <path d="M115.12,117.55l0.67-.29a1.69,1.69,0,0,0,1.6,1.25c1.11,0,1.87-1,1.87-2.95a2.26,2.26,0,0,1-2,1.11,2.12,2.12,0,0,1-2.26-2.25,2.32,2.32,0,0,1,2.46-2.25c1.45,0,2.58,1,2.58,3.41v0c0,2.29-1.11,3.56-2.69,3.56A2.31,2.31,0,0,1,115.12,117.55Zm4-3a1.6,1.6,0,0,0-1.61-1.69,1.52,1.52,0,0,0-1.64,1.61,1.44,1.44,0,0,0,1.51,1.59A1.59,1.59,0,0,0,119.11,114.5Z" transform="translate(0 0.26)" style="fill: #94a0ab"/>
    </g>
    <rect x="248.96" y="65.37" width="98.52" height="59.39" style="fill: none;stroke: #ff6b31;stroke-miterlimit: 10;opacity: 0.8"/>
    <rect x="248.96" y="65.37" width="98.52" height="59.39" style="fill: #ff6b31;opacity: 0.1"/>
    <g>
      <path d="M324.07,115.9v2h-0.61v-2h-1.93v-0.6h1.93v-2h0.61v2H326v0.6h-1.93Z" transform="translate(0 0.26)" style="fill: #94a0ab"/>
      <path d="M327.93,117.24l0.75-.17a1.6,1.6,0,0,0,1.65,1.44,1.53,1.53,0,0,0,1.58-1.63,1.44,1.44,0,0,0-1.42-1.63,2,2,0,0,0-1.63.86l-0.75-.19,0.17-3.61h4.05V113H329l-0.12,2.41a2.32,2.32,0,0,1,1.66-.79,2.1,2.1,0,0,1,2.21,2.23A2.44,2.44,0,0,1,327.93,117.24Z" transform="translate(0 0.26)" style="fill: #94a0ab"/>
      <path d="M334.58,117.9h1V119h-1V117.9Z" transform="translate(0 0.26)" style="fill: #94a0ab"/>
      <path d="M338.54,119a11.08,11.08,0,0,1,2.52-6h-3.8v-0.66h4.63V113a10.27,10.27,0,0,0-2.51,6h-0.83Z" transform="translate(0 0.26)" style="fill: #94a0ab"/>
    </g>
    <g>
      <path d="M212.31,115.9v2H211.7v-2h-1.93v-0.6h1.93v-2h0.61v2h1.93v0.6h-1.93Z" transform="translate(0 0.26)" style="fill: #94a0ab"/>
      <path d="M218.93,119.16c-1.46,0-2.63-1-2.63-3.49v0c0-2.21,1.15-3.49,2.63-3.49a2.27,2.27,0,0,1,2.14,1.47l-0.68.3a1.71,1.71,0,0,0-1.46-1.12c-1,0-1.82,1-1.82,2.88a2.23,2.23,0,0,1,2-1.11,2.13,2.13,0,0,1,2.26,2.25A2.32,2.32,0,0,1,218.93,119.16Zm-1.67-2.33a1.69,1.69,0,0,0,1.67,1.68,1.54,1.54,0,0,0,1.58-1.68,1.47,1.47,0,0,0-1.5-1.59A1.58,1.58,0,0,0,217.26,116.82Z" transform="translate(0 0.26)" style="fill: #94a0ab"/>
      <path d="M223.18,117.9h1V119h-1V117.9Z" transform="translate(0 0.26)" style="fill: #94a0ab"/>
      <path d="M226.08,117.08l0.75-.17a1.71,1.71,0,0,0,1.74,1.59,1.39,1.39,0,0,0,1.56-1.32c0-.76-0.36-1.27-1.6-1.27H228v-0.63h0.51c1,0,1.49-.43,1.49-1.19a1.26,1.26,0,0,0-1.43-1.29,1.55,1.55,0,0,0-1.6,1.49l-0.75-.17a2.27,2.27,0,0,1,2.36-2,2,2,0,0,1,2.25,1.89,1.58,1.58,0,0,1-1.3,1.53,1.65,1.65,0,0,1,1.45,1.58,2.15,2.15,0,0,1-2.4,2A2.36,2.36,0,0,1,226.08,117.08Z" transform="translate(0 0.26)" style="fill: #94a0ab"/>
    </g>
    <g style="mix-blend-mode: multiply">
      <g>
        <line x1="88.92" y1="193.57" x2="134.84" y2="153.87" style="fill: none;stroke: #94a0ab;stroke-linecap: round;stroke-linejoin: round;stroke-width: 0.5px;stroke-dasharray: 0.001,1"/>
        <g>
          <circle cx="88.98" cy="193.26" r="1.41" transform="translate(-104.73 105.52) rotate(-40.85)" style="fill: #fff"/>
          <path d="M90,194.47a1.6,1.6,0,1,0-2.25-.16,1.6,1.6,0,0,0,2.25.16h0Zm-1.84-2.13a1.22,1.22,0,1,1-.13,1.72,1.22,1.22,0,0,1,.13-1.72h0Z" transform="translate(0 0.26)" style="fill: #94a0ab"/>
        </g>
        <circle cx="134.8" cy="153.64" r="0.94" transform="translate(-67.66 125.83) rotate(-40.84)" style="fill: #94a0ab"/>
      </g>
    </g>
    <g style="mix-blend-mode: multiply">
      <g>
        <line x1="132.49" y1="6.79" x2="151.72" y2="36.91" style="fill: none;stroke: #94a0ab;stroke-linecap: round;stroke-linejoin: round;stroke-width: 0.5px;stroke-dasharray: 0.001,1"/>
        <g>
          <circle cx="132.53" cy="6.6" r="1.41" transform="translate(17.29 72.63) rotate(-32.56)" style="fill: #fff"/>
          <path d="M131.18,7.46a1.6,1.6,0,1,0,.49-2.21,1.6,1.6,0,0,0-.49,2.21h0Zm2.38-1.52a1.22,1.22,0,1,1-1.69-.37,1.22,1.22,0,0,1,1.69.37h0Z" transform="translate(0 0.26)" style="fill: #94a0ab"/>
        </g>
        <circle cx="151.7" cy="36.61" r="0.94" transform="translate(4.14 87.67) rotate(-32.56)" style="fill: #94a0ab"/>
      </g>
    </g>
    <g style="mix-blend-mode: multiply">
      <g>
        <line x1="264.54" y1="1.53" x2="238" y2="42.17" style="fill: none;stroke: #94a0ab;stroke-linecap: round;stroke-linejoin: round;stroke-width: 0.5px;stroke-dasharray: 0.001,1"/>
        <g>
          <circle cx="264.5" cy="1.34" r="1.41" transform="matrix(0.55, -0.84, 0.84, 0.55, 118.73, 222.31)" style="fill: #fff"/>
          <path d="M263.16,0.46A1.6,1.6,0,1,0,265.37,0a1.6,1.6,0,0,0-2.21.46h0ZM265.52,2a1.22,1.22,0,1,1-.35-1.69A1.22,1.22,0,0,1,265.52,2h0Z" transform="translate(0 0.26)" style="fill: #94a0ab"/>
        </g>
        <circle cx="238.02" cy="41.87" r="0.94" transform="translate(72.8 218.5) rotate(-56.85)" style="fill: #94a0ab"/>
      </g>
    </g>
    <line x1="166.27" y1="95.07" x2="208.73" y2="95.07" style="fill: none;stroke: #94a0ab;stroke-miterlimit: 10;stroke-width: 0.5px"/>
    <line x1="187.5" y1="116.3" x2="187.5" y2="73.84" style="fill: none;stroke: #94a0ab;stroke-miterlimit: 10;stroke-width: 0.5px"/>
    <line x1="76.78" y1="28.32" x2="138.24" y2="65.37" style="fill: none;stroke: #94a0ab;stroke-linecap: round;stroke-linejoin: round;stroke-width: 0.5px;stroke-dasharray: 0.001,3"/>
    <line x1="236.76" y1="65.37" x2="298.22" y2="28.32" style="fill: none;stroke: #94a0ab;stroke-linecap: round;stroke-linejoin: round;stroke-width: 0.5px;stroke-dasharray: 0.001,3"/>
    <line x1="236.76" y1="124.77" x2="298.22" y2="161.82" style="fill: none;stroke: #94a0ab;stroke-linecap: round;stroke-linejoin: round;stroke-width: 0.5px;stroke-dasharray: 0.001,3"/>
    <line x1="138.24" y1="124.77" x2="76.78" y2="161.82" style="fill: none;stroke: #94a0ab;stroke-linecap: round;stroke-linejoin: round;stroke-width: 0.5px;stroke-dasharray: 0.001,3"/>
    <rect x="138.24" y="65.37" width="98.52" height="59.39" style="fill: none;stroke: #ff6b31;stroke-miterlimit: 10;opacity: 0.8"/>
  </g>
</svg>
