<svg xmlns="http://www.w3.org/2000/svg" viewBox="0 0 340.5 260.41">
  <g>
    <g style="opacity: 0.1">
      <rect x="33.86" y="69.27" width="271.73" height="163.07" style="fill: #94a0ab"/>
    </g>
    <path d="M36.86,256.75c0,2-1,3.16-2.47,3.16s-2.47-1.15-2.47-3.16v0c0-2,1-3.16,2.47-3.16s2.47,1.15,2.47,3.16v0Zm-0.76,0v0c0-1.68-.71-2.57-1.71-2.57s-1.71.89-1.71,2.57v0c0,1.68.71,2.57,1.71,2.57S36.11,258.42,36.11,256.75Z" transform="translate(0.25 0.5)" style="fill: #94a0ab"/>
    <path d="M98.65,258.17l0.68-.15a1.45,1.45,0,0,0,1.49,1.3,1.38,1.38,0,0,0,1.43-1.48,1.3,1.3,0,0,0-1.28-1.48,1.8,1.8,0,0,0-1.48.78L98.81,257,99,253.71h3.67v0.6h-3l-0.11,2.19a2.1,2.1,0,0,1,1.5-.72,1.9,1.9,0,0,1,2,2A2.21,2.21,0,0,1,98.65,258.17Z" transform="translate(0.25 0.5)" style="fill: #94a0ab"/>
    <g>
      <path d="M163.88,259.17h1.32v-4.66a4.94,4.94,0,0,1-1.32.51v-0.58a5.41,5.41,0,0,0,1.49-.74h0.56v5.47h1.32v0.6h-3.38v-0.6Z" transform="translate(0.25 0.5)" style="fill: #94a0ab"/>
      <path d="M173.75,256.75c0,2-1,3.16-2.47,3.16s-2.47-1.15-2.47-3.16v0c0-2,1-3.16,2.47-3.16s2.47,1.15,2.47,3.16v0Zm-0.76,0v0c0-1.68-.71-2.57-1.71-2.57s-1.71.89-1.71,2.57v0c0,1.68.71,2.57,1.71,2.57S173,258.42,173,256.75Z" transform="translate(0.25 0.5)" style="fill: #94a0ab"/>
    </g>
    <g>
      <path d="M232.5,259.17h1.32v-4.66a4.94,4.94,0,0,1-1.32.51v-0.58a5.41,5.41,0,0,0,1.49-.74h0.56v5.47h1.32v0.6H232.5v-0.6Z" transform="translate(0.25 0.5)" style="fill: #94a0ab"/>
      <path d="M237.28,258.17L238,258a1.45,1.45,0,0,0,1.49,1.3,1.38,1.38,0,0,0,1.43-1.48,1.3,1.3,0,0,0-1.28-1.48,1.8,1.8,0,0,0-1.48.78l-0.68-.17,0.16-3.27h3.67v0.6h-3l-0.11,2.19a2.1,2.1,0,0,1,1.5-.72,1.9,1.9,0,0,1,2,2A2.21,2.21,0,0,1,237.28,258.17Z" transform="translate(0.25 0.5)" style="fill: #94a0ab"/>
    </g>
    <g>
      <path d="M298,259.77v-0.59l1.92-1.87c1.06-1,1.3-1.52,1.3-2a1.08,1.08,0,0,0-1.17-1.11,1.62,1.62,0,0,0-1.53,1.46l-0.68-.15a2.21,2.21,0,0,1,2.21-1.9,1.73,1.73,0,0,1,1.94,1.7c0,0.67-.35,1.35-1.55,2.49l-1.49,1.41h3v0.6h-4Z" transform="translate(0.25 0.5)" style="fill: #94a0ab"/>
      <path d="M308.57,256.75c0,2-1,3.16-2.47,3.16s-2.47-1.15-2.47-3.16v0c0-2,1-3.16,2.47-3.16s2.47,1.15,2.47,3.16v0Zm-0.76,0v0c0-1.68-.71-2.57-1.71-2.57s-1.71.89-1.71,2.57v0c0,1.68.71,2.57,1.71,2.57S307.81,258.42,307.81,256.75Z" transform="translate(0.25 0.5)" style="fill: #94a0ab"/>
    </g>
    <path d="M0.83,216.47c30,0,22.75-29,36.72-29,22.5,0,21.16-86.28,36.72-86.28C97.17,101.17,104.09,0,111,0s1.93,85.14,36.72,85.14c33.94,0,29.19-46.58,36.72-46.58s-2.78,154.62,36.72,154.62c28.46,0,53.78,35,82.17,35,0,0,20.64.59,33.67-10.19" transform="translate(0.25 0.5)" style="fill: none;stroke: #ff6b31;stroke-linecap: round;stroke-linejoin: round;stroke-dasharray: 0.001,2;opacity: 0.8"/>
    <polyline points="33.85 232.33 33.85 69.27 305.58 69.27 305.58 232.33" style="fill: none;stroke: #94a0ab;stroke-miterlimit: 10;stroke-width: 0.5px"/>
    <path d="M34.45,176.12" transform="translate(0.25 0.5)" style="fill: none;stroke: #94a0ab;stroke-miterlimit: 10;stroke-width: 0.25px"/>
    <path d="M11.45,231.83c35.19-17.14,28.68-94.18,35.93-94.18S47.39,178,83.32,178c39.32,0,27.69-80,35.93-80s0.4,52.49,35.93,52.49c11.91,0,17.52-9.53,35.93-9.53,38.06,0,26-43.43,35.93-43.43s-6.74,71.5,35.93,71.5c30.51,0,44.48,58.61,62.89,62.75H11.45Z" transform="translate(0.25 0.5)" style="fill: #ff6b31;opacity: 0.1"/>
    <path d="M331.6,231.83h0c-37.11-12-30.24-66.17-37.9-66.17s0,28.35-37.9,28.35c-41.47,0-29.2-56.17-37.9-56.17s-0.42,36.88-37.9,36.88c-12.57,0-18.48-6.69-37.9-6.69-40.14,0-27.44-30.51-37.9-30.51s7.11,50.23-37.9,50.23c-32.18,0-46.91,41.18-66.33,44.08" transform="translate(0.25 0.5)" style="fill: none;stroke: #ff6b31;stroke-miterlimit: 10;opacity: 0.8;mix-blend-mode: multiply"/>
    <g>
      <line x1="34.18" y1="32.21" x2="34.18" y2="232.71" style="fill: none;stroke: #94a0ab;stroke-linecap: round;stroke-linejoin: round;stroke-width: 0.5px;stroke-dasharray: 0.001,3"/>
      <line x1="53.56" y1="32.21" x2="53.56" y2="232.71" style="fill: none;stroke: #94a0ab;stroke-linecap: round;stroke-linejoin: round;stroke-width: 0.5px;stroke-dasharray: 0.001,3"/>
      <line x1="72.95" y1="32.21" x2="72.95" y2="232.71" style="fill: none;stroke: #94a0ab;stroke-linecap: round;stroke-linejoin: round;stroke-width: 0.5px;stroke-dasharray: 0.001,3"/>
      <line x1="92.34" y1="32.21" x2="92.34" y2="232.71" style="fill: none;stroke: #94a0ab;stroke-linecap: round;stroke-linejoin: round;stroke-width: 0.5px;stroke-dasharray: 0.001,3"/>
      <line x1="111.72" y1="32.21" x2="111.72" y2="232.71" style="fill: none;stroke: #94a0ab;stroke-linecap: round;stroke-linejoin: round;stroke-width: 0.5px;stroke-dasharray: 0.001,3"/>
      <line x1="131.11" y1="32.21" x2="131.11" y2="232.71" style="fill: none;stroke: #94a0ab;stroke-linecap: round;stroke-linejoin: round;stroke-width: 0.5px;stroke-dasharray: 0.001,3"/>
      <line x1="150.49" y1="32.21" x2="150.49" y2="232.71" style="fill: none;stroke: #94a0ab;stroke-linecap: round;stroke-linejoin: round;stroke-width: 0.5px;stroke-dasharray: 0.001,3"/>
      <line x1="169.88" y1="32.21" x2="169.88" y2="232.71" style="fill: none;stroke: #94a0ab;stroke-linecap: round;stroke-linejoin: round;stroke-width: 0.5px;stroke-dasharray: 0.001,3"/>
      <line x1="189.27" y1="32.21" x2="189.27" y2="232.71" style="fill: none;stroke: #94a0ab;stroke-linecap: round;stroke-linejoin: round;stroke-width: 0.5px;stroke-dasharray: 0.001,3"/>
      <line x1="208.65" y1="32.21" x2="208.65" y2="232.71" style="fill: none;stroke: #94a0ab;stroke-linecap: round;stroke-linejoin: round;stroke-width: 0.5px;stroke-dasharray: 0.001,3"/>
      <line x1="228.04" y1="32.21" x2="228.04" y2="232.71" style="fill: none;stroke: #94a0ab;stroke-linecap: round;stroke-linejoin: round;stroke-width: 0.5px;stroke-dasharray: 0.001,3"/>
      <line x1="247.43" y1="32.21" x2="247.43" y2="232.71" style="fill: none;stroke: #94a0ab;stroke-linecap: round;stroke-linejoin: round;stroke-width: 0.5px;stroke-dasharray: 0.001,3"/>
      <line x1="266.81" y1="32.21" x2="266.81" y2="232.71" style="fill: none;stroke: #94a0ab;stroke-linecap: round;stroke-linejoin: round;stroke-width: 0.5px;stroke-dasharray: 0.001,3"/>
      <line x1="286.2" y1="32.21" x2="286.2" y2="232.71" style="fill: none;stroke: #94a0ab;stroke-linecap: round;stroke-linejoin: round;stroke-width: 0.5px;stroke-dasharray: 0.001,3"/>
      <line x1="305.58" y1="32.21" x2="305.58" y2="232.71" style="fill: none;stroke: #94a0ab;stroke-linecap: round;stroke-linejoin: round;stroke-width: 0.5px;stroke-dasharray: 0.001,3"/>
    </g>
    <g>
      <polyline points="0.25 232.32 170.25 232.32 340.25 232.32" style="fill: none;stroke: #94a0ab;stroke-linecap: round;stroke-linejoin: round;stroke-width: 0.5px;stroke-dasharray: 0.001,3"/>
      <polyline points="0.25 211.94 170.25 211.94 340.25 211.94" style="fill: none;stroke: #94a0ab;stroke-linecap: round;stroke-linejoin: round;stroke-width: 0.5px;stroke-dasharray: 0.001,3"/>
      <polyline points="0.25 191.56 170.25 191.56 340.25 191.56" style="fill: none;stroke: #94a0ab;stroke-linecap: round;stroke-linejoin: round;stroke-width: 0.5px;stroke-dasharray: 0.001,3"/>
      <polyline points="0.25 171.19 170.25 171.19 340.25 171.19" style="fill: none;stroke: #94a0ab;stroke-linecap: round;stroke-linejoin: round;stroke-width: 0.5px;stroke-dasharray: 0.001,3"/>
      <polyline points="0.25 150.81 170.25 150.81 340.25 150.81" style="fill: none;stroke: #94a0ab;stroke-linecap: round;stroke-linejoin: round;stroke-width: 0.5px;stroke-dasharray: 0.001,3"/>
      <polyline points="0.25 130.43 170.25 130.43 340.25 130.43" style="fill: none;stroke: #94a0ab;stroke-linecap: round;stroke-linejoin: round;stroke-width: 0.5px;stroke-dasharray: 0.001,3"/>
      <polyline points="0.25 110.05 170.25 110.05 340.25 110.05" style="fill: none;stroke: #94a0ab;stroke-linecap: round;stroke-linejoin: round;stroke-width: 0.5px;stroke-dasharray: 0.001,3"/>
      <polyline points="0.25 89.67 170.25 89.67 340.25 89.67" style="fill: none;stroke: #94a0ab;stroke-linecap: round;stroke-linejoin: round;stroke-width: 0.5px;stroke-dasharray: 0.001,3"/>
      <line x1="0.25" y1="69.28" x2="340.25" y2="69.28" style="fill: none;stroke: #94a0ab;stroke-linecap: round;stroke-linejoin: round;stroke-width: 0.5px;stroke-dasharray: 0.001,3"/>
    </g>
  </g>
</svg>
