<svg xmlns="http://www.w3.org/2000/svg" viewBox="0 0 300 262.73">
  <g>
    <path d="M149.85,184.18" transform="translate(0 -1.23)" style="fill: none;stroke: #94a0ab;stroke-miterlimit: 10;stroke-width: 0.5px"/>
    <path d="M149.85,131" transform="translate(0 -1.23)" style="fill: none;stroke: #94a0ab;stroke-miterlimit: 10;stroke-width: 0.5px"/>
    <path d="M176.45,157.58" transform="translate(0 -1.23)" style="fill: none;stroke: #94a0ab;stroke-miterlimit: 10;stroke-width: 0.5px"/>
    <path d="M123.25,157.58" transform="translate(0 -1.23)" style="fill: none;stroke: #94a0ab;stroke-miterlimit: 10;stroke-width: 0.5px"/>
    <rect x="87.48" y="5.27" width="124.73" height="206.9" transform="translate(41.13 257.34) rotate(-90)" style="fill: none;stroke: #ff6b31;stroke-linecap: round;stroke-linejoin: round;stroke-dasharray: 0.001,2;opacity: 0.6000000000000001"/>
    <g style="opacity: 0.1">
      <rect x="11.11" y="72.71" width="277.48" height="167.28" style="fill: #ff6b31"/>
    </g>
    <g style="opacity: 0.8">
      <path d="M270.54,60.15h-0.06a26.88,26.88,0,0,1-.94,1.07v0.05a0.5,0.5,0,1,0,1,0V61.22a0.5,0.5,0,0,0,0-.07h0v-1h0Zm-2.06,0h-0.05a0.5,0.5,0,0,0,0,1h0.05a0.5,0.5,0,0,0,0-1h0Zm-2.05,0h-0.06a0.5,0.5,0,0,0,0,1h0.06a0.5,0.5,0,0,0,0-1h0Zm-2.06,0h-0.05a0.5,0.5,0,0,0,0,1h0.05a0.5,0.5,0,0,0,0-1h0Zm-2.05,0h-0.06a0.5,0.5,0,0,0,0,1h0.06a0.5,0.5,0,0,0,0-1h0Zm-2.06,0h-0.05a0.5,0.5,0,0,0,0,1h0.05a0.5,0.5,0,0,0,0-1h0Zm-2.05,0h-0.06a0.5,0.5,0,0,0,0,1h0.06a0.5,0.5,0,0,0,0-1h0Zm-2.06,0H256.1a0.5,0.5,0,0,0,0,1h0.06a0.5,0.5,0,0,0,0-1h0Zm-2.06,0H254a0.5,0.5,0,0,0,0,1h0.05a0.5,0.5,0,0,0,0-1h0Zm-2.05,0H252a0.5,0.5,0,0,0,0,1H252a0.5,0.5,0,0,0,0-1h0Zm-2.06,0h-0.05a0.5,0.5,0,0,0,0,1H250a0.5,0.5,0,0,0,0-1h0Zm-2.05,0h-0.06a0.5,0.5,0,0,0,0,1h0.06a0.5,0.5,0,0,0,0-1h0Zm-2.06,0h-0.05a0.5,0.5,0,0,0,0,1h0.05a0.5,0.5,0,0,0,0-1h0Zm-2.05,0h-0.06a0.5,0.5,0,0,0,0,1h0.06a0.5,0.5,0,0,0,0-1h0Zm-2.06,0h-0.05a0.5,0.5,0,0,0,0,1h0.05a0.5,0.5,0,0,0,0-1h0Zm-2.05,0h-0.06a0.5,0.5,0,0,0,0,1h0.06a0.5,0.5,0,0,0,0-1h0Zm-2.06,0h-0.06a0.5,0.5,0,0,0,0,1h0.06a0.5,0.5,0,0,0,0-1h0Zm-2.06,0h-0.05a0.5,0.5,0,0,0,0,1h0.05a0.5,0.5,0,0,0,0-1h0Zm-2.05,0H233.5a0.5,0.5,0,0,0,0,1h0.06a0.5,0.5,0,0,0,0-1h0Zm-2.06,0h-0.05a0.5,0.5,0,0,0,0,1h0.05a0.5,0.5,0,0,0,0-1h0Zm-2.05,0h-0.06a0.5,0.5,0,0,0,0,1h0.06a0.5,0.5,0,0,0,0-1h0Zm-2.06,0h-0.05a0.5,0.5,0,0,0,0,1h0.05a0.5,0.5,0,0,0,0-1h0Zm-2.05,0h-0.06a0.5,0.5,0,0,0,0,1h0.06a0.5,0.5,0,0,0,0-1h0Zm-2.06,0h-0.05a0.5,0.5,0,0,0,0,1h0.05a0.5,0.5,0,0,0,0-1h0Zm-2.05,0h-0.06a0.5,0.5,0,0,0,0,1h0.06a0.5,0.5,0,0,0,0-1h0Zm-2.06,0h-0.06a0.5,0.5,0,0,0,0,1h0.06a0.5,0.5,0,0,0,0-1h0Zm-2.06,0h-0.05a0.5,0.5,0,0,0,0,1h0.05a0.5,0.5,0,0,0,0-1h0Zm-2.05,0H215a0.5,0.5,0,0,0,0,1h0.06a0.5,0.5,0,0,0,0-1h0Zm-2.06,0h-0.05a0.5,0.5,0,0,0,0,1H213a0.5,0.5,0,0,0,0-1h0Zm-2.05,0h-0.06a0.5,0.5,0,0,0,0,1h0.06a0.5,0.5,0,0,0,0-1h0Zm-2.06,0h-0.05a0.5,0.5,0,0,0,0,1h0.05a0.5,0.5,0,0,0,0-1h0Zm-2.05,0h-0.06a0.5,0.5,0,0,0,0,1h0.06a0.5,0.5,0,0,0,0-1h0Zm-2.06,0h-0.06a0.5,0.5,0,0,0,0,1h0.06a0.5,0.5,0,0,0,0-1h0Zm-2.06,0h-0.05a0.5,0.5,0,0,0,0,1h0.05a0.5,0.5,0,0,0,0-1h0Zm-2.05,0h-0.06a0.5,0.5,0,0,0,0,1h0.06a0.5,0.5,0,0,0,0-1h0Zm-2.06,0h-0.05a0.5,0.5,0,0,0,0,1h0.05a0.5,0.5,0,0,0,0-1h0Zm-2.05,0h-0.06a0.5,0.5,0,0,0,0,1h0.06a0.5,0.5,0,0,0,0-1h0Zm-2.06,0h-0.05a0.5,0.5,0,0,0,0,1h0.05a0.5,0.5,0,0,0,0-1h0Zm-2.05,0H192.4a0.5,0.5,0,0,0,0,1h0.06a0.5,0.5,0,0,0,0-1h0Zm-2.06,0h-0.05a0.5,0.5,0,0,0,0,1h0.05a0.5,0.5,0,0,0,0-1h0Zm-2.05,0h-0.06a0.5,0.5,0,0,0,0,1h0.06a0.5,0.5,0,0,0,0-1h0Zm-2.06,0h-0.06a0.5,0.5,0,0,0,0,1h0.06a0.5,0.5,0,0,0,0-1h0Zm-2.06,0h-0.05a0.5,0.5,0,0,0,0,1h0.05a0.5,0.5,0,0,0,0-1h0Zm-2.05,0h-0.06a0.5,0.5,0,0,0,0,1h0.06a0.5,0.5,0,0,0,0-1h0Zm-2.06,0h-0.05a0.5,0.5,0,0,0,0,1h0.05a0.5,0.5,0,0,0,0-1h0Zm-2.05,0H178a0.5,0.5,0,0,0,0,1h0.06a0.5,0.5,0,0,0,0-1h0Zm-2.06,0H176a0.5,0.5,0,0,0,0,1H176a0.5,0.5,0,0,0,0-1h0Zm-2.05,0H173.9a0.5,0.5,0,0,0,0,1H174a0.5,0.5,0,0,0,0-1h0Zm-2.06,0h-0.05a0.5,0.5,0,0,0,0,1h0.05a0.5,0.5,0,0,0,0-1h0Zm-2.05,0h-0.06a0.5,0.5,0,0,0,0,1h0.06a0.5,0.5,0,0,0,0-1h0Zm-2.06,0h-0.06a0.5,0.5,0,0,0,0,1h0.06a0.5,0.5,0,0,0,0-1h0Zm-2.06,0h-0.05a0.5,0.5,0,0,0,0,1h0.05a0.5,0.5,0,0,0,0-1h0Zm-2.05,0h-0.06a0.5,0.5,0,0,0,0,1h0.06a0.5,0.5,0,0,0,0-1h0Zm-2.06,0h-0.05a0.5,0.5,0,0,0,0,1h0.05a0.5,0.5,0,0,0,0-1h0Zm-2.05,0h-0.06a0.5,0.5,0,0,0,0,1h0.06a0.5,0.5,0,0,0,0-1h0Zm-2.06,0h-0.05a0.5,0.5,0,0,0,0,1h0.05a0.5,0.5,0,0,0,0-1h0Zm-2.05,0h-0.06a0.5,0.5,0,0,0,0,1h0.06a0.5,0.5,0,0,0,0-1h0Zm-2.06,0h-0.06a0.5,0.5,0,0,0,0,1h0.06a0.5,0.5,0,0,0,0-1h0Zm-2.06,0H151.3a0.5,0.5,0,0,0,0,1h0.05a0.5,0.5,0,0,0,0-1h0Zm-2.05,0h-0.06a0.5,0.5,0,0,0,0,1h0.06a0.5,0.5,0,0,0,0-1h0Zm-2.06,0h-0.05a0.5,0.5,0,0,0,0,1h0.05a0.5,0.5,0,0,0,0-1h0Zm-2.05,0h-0.06a0.5,0.5,0,0,0,0,1h0.06a0.5,0.5,0,0,0,0-1h0Zm-2.06,0h-0.05a0.5,0.5,0,0,0,0,1h0.05a0.5,0.5,0,0,0,0-1h0Zm-2.05,0H141a0.5,0.5,0,0,0,0,1h0.06a0.5,0.5,0,0,0,0-1h0Zm-2.06,0H139a0.5,0.5,0,0,0,0,1H139a0.5,0.5,0,0,0,0-1h0Zm-2.05,0h-0.06a0.5,0.5,0,0,0,0,1H137a0.5,0.5,0,0,0,0-1h0Zm-2.06,0h-0.06a0.5,0.5,0,0,0,0,1h0.06a0.5,0.5,0,0,0,0-1h0Zm-2.06,0H132.8a0.5,0.5,0,0,0,0,1h0.05a0.5,0.5,0,0,0,0-1h0Zm-2.05,0h-0.06a0.5,0.5,0,0,0,0,1h0.06a0.5,0.5,0,0,0,0-1h0Zm-2.06,0h-0.05a0.5,0.5,0,0,0,0,1h0.05a0.5,0.5,0,0,0,0-1h0Zm-2.05,0h-0.06a0.5,0.5,0,0,0,0,1h0.06a0.5,0.5,0,0,0,0-1h0Zm-2.06,0h-0.05a0.5,0.5,0,0,0,0,1h0.05a0.5,0.5,0,0,0,0-1h0Zm-2.05,0h-0.06a0.5,0.5,0,0,0,0,1h0.06a0.5,0.5,0,0,0,0-1h0Zm-2.06,0h-0.05a0.5,0.5,0,0,0,0,1h0.05a0.5,0.5,0,0,0,0-1h0Zm-2.05,0h-0.06a0.5,0.5,0,0,0,0,1h0.06a0.5,0.5,0,0,0,0-1h0Zm-2.06,0h-0.06a0.5,0.5,0,0,0,0,1h0.06a0.5,0.5,0,0,0,0-1h0Zm-2.06,0h-0.05a0.5,0.5,0,0,0,0,1h0.05a0.5,0.5,0,0,0,0-1h0Zm-2.05,0h-0.06a0.5,0.5,0,0,0,0,1h0.06a0.5,0.5,0,1,0,0-1h0Zm-2.06,0H110.2a0.5,0.5,0,1,0,0,1h0.05a0.5,0.5,0,0,0,0-1h0Zm-2.05,0h-0.06a0.5,0.5,0,0,0,0,1h0.06a0.5,0.5,0,0,0,0-1h0Zm-2.06,0h-0.05a0.5,0.5,0,0,0,0,1h0.05a0.5,0.5,0,1,0,0-1h0Zm-2.05,0H104a0.5,0.5,0,1,0,0,1h0.06a0.5,0.5,0,1,0,0-1h0Zm-2.06,0H102a0.5,0.5,0,0,0,0,1H102a0.5,0.5,0,0,0,0-1h0Zm-2.06,0H99.92a0.5,0.5,0,0,0,0,1H100a0.5,0.5,0,0,0,0-1h0Zm-2.05,0H97.87a0.5,0.5,0,0,0,0,1h0.06a0.5,0.5,0,0,0,0-1h0Zm-2.06,0H95.81a0.5,0.5,0,1,0,0,1h0.05a0.5,0.5,0,0,0,0-1h0Zm-2.05,0H93.76a0.5,0.5,0,0,0,0,1h0.06a0.5,0.5,0,0,0,0-1h0Zm-2.06,0H91.7a0.5,0.5,0,1,0,0,1h0.05a0.5,0.5,0,0,0,0-1h0Zm-2.05,0H89.65a0.5,0.5,0,0,0,0,1H89.7a0.5,0.5,0,0,0,0-1h0Zm-2.06,0H87.59a0.5,0.5,0,0,0,0,1h0.05a0.5,0.5,0,1,0,0-1h0Zm-2.05,0H85.54a0.5,0.5,0,0,0,0,1h0.06a0.5,0.5,0,0,0,0-1h0Zm-2.06,0H83.48a0.5,0.5,0,1,0,0,1h0.06a0.5,0.5,0,0,0,0-1h0Zm-2.06,0H81.43a0.5,0.5,0,0,0,0,1h0.05a0.5,0.5,0,0,0,0-1h0Zm-2.05,0H79.37a0.5,0.5,0,0,0,0,1h0.06a0.5,0.5,0,0,0,0-1h0Zm-2.06,0H77.32a0.5,0.5,0,1,0,0,1h0.05a0.5,0.5,0,0,0,0-1h0Zm-2.05,0H75.26a0.5,0.5,0,0,0,0,1h0.06a0.5,0.5,0,0,0,0-1h0Zm-2.06,0H73.21a0.5,0.5,0,0,0,0,1h0.05a0.5,0.5,0,1,0,0-1h0Zm-2.05,0H71.15a0.5,0.5,0,0,0,0,1h0.06a0.5,0.5,0,0,0,0-1h0Zm-2.06,0H69.1a0.5,0.5,0,0,0,0,1h0.05a0.5,0.5,0,1,0,0-1h0Zm-2.05,0H67a0.5,0.5,0,0,0,0,1H67.1a0.5,0.5,0,0,0,0-1h0Zm-2.06,0H65a0.5,0.5,0,0,0,0,1H65a0.5,0.5,0,0,0,0-1h0Zm-2.06,0H62.93a0.5,0.5,0,0,0,0,1H63a0.5,0.5,0,0,0,0-1h0Zm-2.05,0H60.88a0.5,0.5,0,0,0,0,1h0.06a0.5,0.5,0,1,0,0-1h0Zm-2.06,0H58.82a0.5,0.5,0,1,0,0,1h0.05a0.5,0.5,0,0,0,0-1h0Zm-2.05,0H56.77a0.5,0.5,0,0,0,0,1h0.06a0.5,0.5,0,0,0,0-1h0Zm-2.06,0H54.71a0.5,0.5,0,0,0,0,1h0.05a0.5,0.5,0,1,0,0-1h0Zm-2.05,0H52.66a0.5,0.5,0,1,0,0,1h0.06a0.5,0.5,0,0,0,0-1h0Zm-2.06,0H50.6a0.5,0.5,0,0,0,0,1h0.06a0.5,0.5,0,0,0,0-1h0Zm-2.06,0H48.55a0.5,0.5,0,0,0,0,1H48.6a0.5,0.5,0,0,0,0-1h0Zm-2.05,0H46.49a0.5,0.5,0,1,0,0,1h0.06a0.5,0.5,0,1,0,0-1h0Zm-2.06,0H44.44a0.5,0.5,0,0,0,0,1h0.05a0.5,0.5,0,0,0,0-1h0Zm-2.05,0H42.38a0.5,0.5,0,0,0,0,1h0.06a0.5,0.5,0,0,0,0-1h0Zm-2.06,0H40.33a0.5,0.5,0,1,0,0,1h0.05a0.5,0.5,0,0,0,0-1h0Zm-2.05,0H38.27a0.5,0.5,0,0,0,0,1h0.06a0.5,0.5,0,0,0,0-1h0Zm-2.06,0H36.22a0.5,0.5,0,0,0,0,1h0.05a0.5,0.5,0,0,0,0-1h0Zm-2.05,0H34.16a0.5,0.5,0,1,0,0,1h0.06a0.5,0.5,0,1,0,0-1h0Zm-2.06,0H32.11a0.5,0.5,0,0,0,0,1h0.06a0.5,0.5,0,0,0,0-1h0Zm-2.06,0H30.05a0.5,0.5,0,0,0-.49.61,0.5,0.5,0,0,0-.41.49v0.06a0.5,0.5,0,0,0,1,0V61.25a0.5,0.5,0,0,0,0-.11,0.5,0.5,0,0,0,0-1h0Zm-0.45,2.66a0.5,0.5,0,0,0-.5.5v0.05a0.5,0.5,0,0,0,1,0V63.31a0.5,0.5,0,0,0-.5-0.5h0Zm0,2.05a0.5,0.5,0,0,0-.5.5v0.05a0.5,0.5,0,0,0,1,0V65.36a0.5,0.5,0,0,0-.5-0.5h0Zm0,2.05a0.5,0.5,0,0,0-.5.5v0.05a0.5,0.5,0,0,0,1,0V67.42a0.5,0.5,0,0,0-.5-0.5h0Zm0,2.05a0.5,0.5,0,0,0-.5.5v0.05a0.5,0.5,0,0,0,1,0V69.47a0.5,0.5,0,0,0-.5-0.5h0Zm0,2.05a0.5,0.5,0,0,0-.5.5v0.05a0.5,0.5,0,0,0,1,0V71.53a0.5,0.5,0,0,0-.5-0.5h0Zm0,2.05a0.5,0.5,0,0,0-.5.5v0.05a0.5,0.5,0,0,0,1,0V73.58a0.5,0.5,0,0,0-.5-0.5h0Zm0,2.05a0.5,0.5,0,0,0-.5.5v0.05a0.5,0.5,0,0,0,1,0V75.64a0.5,0.5,0,0,0-.5-0.5h0Zm0,2.05a0.5,0.5,0,0,0-.5.5v0.06a0.5,0.5,0,0,0,1,0V77.69a0.5,0.5,0,0,0-.5-0.5h0Zm0,2.06a0.5,0.5,0,0,0-.5.5V79.8a0.5,0.5,0,0,0,1,0V79.75a0.5,0.5,0,0,0-.5-0.5h0Zm0,2.05a0.5,0.5,0,0,0-.5.5v0.05a0.5,0.5,0,0,0,1,0V81.8a0.5,0.5,0,0,0-.5-0.5h0Zm0,2.05a0.5,0.5,0,0,0-.5.5v0.05a0.5,0.5,0,0,0,1,0V83.86a0.5,0.5,0,0,0-.5-0.5h0Zm0,2.05a0.5,0.5,0,0,0-.5.5V86a0.5,0.5,0,0,0,1,0V85.91a0.5,0.5,0,0,0-.5-0.5h0Zm0,2.05a0.5,0.5,0,0,0-.5.5V88a0.5,0.5,0,0,0,1,0V88a0.5,0.5,0,0,0-.5-0.5h0Zm0,2.05a0.5,0.5,0,0,0-.5.5v0.05a0.5,0.5,0,0,0,1,0V90a0.5,0.5,0,0,0-.5-0.5h0Zm0,2.05a0.5,0.5,0,0,0-.5.5v0.05a0.5,0.5,0,0,0,1,0V92.08a0.5,0.5,0,0,0-.5-0.5h0Zm0,2.05a0.5,0.5,0,0,0-.5.5v0.06a0.5,0.5,0,0,0,1,0V94.13a0.5,0.5,0,0,0-.5-0.5h0Zm0,2.06a0.5,0.5,0,0,0-.5.5v0.05a0.5,0.5,0,0,0,1,0V96.19a0.5,0.5,0,0,0-.5-0.5h0Zm0,2.05a0.5,0.5,0,0,0-.5.5V98.3a0.5,0.5,0,0,0,1,0V98.24a0.5,0.5,0,0,0-.5-0.5h0Zm0,2.05a0.5,0.5,0,0,0-.5.5v0.05a0.5,0.5,0,0,0,1,0V100.3a0.5,0.5,0,0,0-.5-0.5h0Zm0,2.05a0.5,0.5,0,0,0-.5.5v0.05a0.5,0.5,0,0,0,1,0v-0.05a0.5,0.5,0,0,0-.5-0.5h0Zm0,2.05a0.5,0.5,0,0,0-.5.5v0.05a0.5,0.5,0,0,0,1,0v-0.05a0.5,0.5,0,0,0-.5-0.5h0Zm0,2.05a0.5,0.5,0,0,0-.5.5v0.05a0.5,0.5,0,0,0,1,0v-0.05a0.5,0.5,0,0,0-.5-0.5h0Zm0,2.05a0.5,0.5,0,0,0-.5.5v0.05a0.5,0.5,0,0,0,1,0v-0.05a0.5,0.5,0,0,0-.5-0.5h0Zm0,2.05a0.5,0.5,0,0,0-.5.5v0.05a0.5,0.5,0,0,0,1,0v-0.05a0.5,0.5,0,0,0-.5-0.5h0Zm0,2.05a0.5,0.5,0,0,0-.5.5v0.06a0.5,0.5,0,0,0,1,0v-0.06a0.5,0.5,0,0,0-.5-0.5h0Zm0,2.06a0.5,0.5,0,0,0-.5.5v0.05a0.5,0.5,0,0,0,1,0v-0.05a0.5,0.5,0,0,0-.5-0.5h0Zm0,2.05a0.5,0.5,0,0,0-.5.5v0.05a0.5,0.5,0,0,0,1,0v-0.05a0.5,0.5,0,0,0-.5-0.5h0Zm0,2.05a0.5,0.5,0,0,0-.5.5v0.05a0.5,0.5,0,0,0,1,0v-0.05a0.5,0.5,0,0,0-.5-0.5h0Zm0,2.05a0.5,0.5,0,0,0-.5.5v0.05a0.5,0.5,0,0,0,1,0v-0.05a0.5,0.5,0,0,0-.5-0.5h0Zm0,2.05a0.5,0.5,0,0,0-.5.5V123a0.5,0.5,0,0,0,1,0V122.9a0.5,0.5,0,0,0-.5-0.5h0Zm0,2.05a0.5,0.5,0,0,0-.5.5V125a0.5,0.5,0,0,0,1,0V125a0.5,0.5,0,0,0-.5-0.5h0Zm0,2.05a0.5,0.5,0,0,0-.5.5v0.05a0.5,0.5,0,0,0,1,0V127a0.5,0.5,0,0,0-.5-0.5h0Zm0,2.05a0.5,0.5,0,0,0-.5.5v0.06a0.5,0.5,0,0,0,1,0v-0.06a0.5,0.5,0,0,0-.5-0.5h0Zm0,2.06a0.5,0.5,0,0,0-.5.5v0.05a0.5,0.5,0,0,0,1,0v-0.05a0.5,0.5,0,0,0-.5-0.5h0Zm0,2.05a0.5,0.5,0,0,0-.5.5v0.05a0.5,0.5,0,0,0,1,0v-0.05a0.5,0.5,0,0,0-.5-0.5h0Zm0,2.05a0.5,0.5,0,0,0-.5.5v0.05a0.5,0.5,0,0,0,1,0v-0.05a0.5,0.5,0,0,0-.5-0.5h0Zm0,2.05a0.5,0.5,0,0,0-.5.5v0.05a0.5,0.5,0,0,0,1,0v-0.05a0.5,0.5,0,0,0-.5-0.5h0Zm0,2.05a0.5,0.5,0,0,0-.5.5v0.05a0.5,0.5,0,0,0,1,0v-0.05a0.5,0.5,0,0,0-.5-0.5h0Zm0,2.05a0.5,0.5,0,0,0-.5.5v0.06a0.5,0.5,0,0,0,1,0V141.4a0.5,0.5,0,0,0-.5-0.5h0Zm0,2.06a0.5,0.5,0,0,0-.5.5v0.05a0.5,0.5,0,0,0,1,0v-0.05a0.5,0.5,0,0,0-.5-0.5h0Zm0,2.05a0.5,0.5,0,0,0-.5.5v0.05a0.5,0.5,0,0,0,1,0v-0.05a0.5,0.5,0,0,0-.5-0.5h0Zm0,2.05a0.5,0.5,0,0,0-.5.5v0.05a0.5,0.5,0,0,0,1,0v-0.05a0.5,0.5,0,0,0-.5-0.5h0Zm0,2.05a0.5,0.5,0,0,0-.5.5v0.06a0.5,0.5,0,0,0,1,0v-0.06a0.5,0.5,0,0,0-.5-0.5h0Zm0,2.06a0.5,0.5,0,0,0-.5.5v0.05a0.5,0.5,0,0,0,1,0v-0.05a0.5,0.5,0,0,0-.5-0.5h0Zm0,2.05a0.5,0.5,0,0,0-.5.5v0.05a0.5,0.5,0,0,0,1,0v-0.05a0.5,0.5,0,0,0-.5-0.5h0Zm0,2.05a0.5,0.5,0,0,0-.5.5v0.05a0.5,0.5,0,0,0,1,0v-0.05a0.5,0.5,0,0,0-.5-0.5h0Zm0,2.05a0.5,0.5,0,0,0-.5.5v0.05a0.5,0.5,0,0,0,1,0v-0.05a0.5,0.5,0,0,0-.5-0.5h0Zm0,2.05a0.5,0.5,0,0,0-.5.5v0.06a0.5,0.5,0,0,0,1,0v-0.06a0.5,0.5,0,0,0-.5-0.5h0Zm0,2.06a0.5,0.5,0,0,0-.5.5V162a0.5,0.5,0,0,0,1,0v-0.05a0.5,0.5,0,0,0-.5-0.5h0Zm0,2.05a0.5,0.5,0,0,0-.5.5v0.05a0.5,0.5,0,0,0,1,0V164a0.5,0.5,0,0,0-.5-0.5h0Zm0,2.05a0.5,0.5,0,0,0-.5.5v0.05a0.5,0.5,0,0,0,1,0v-0.05a0.5,0.5,0,0,0-.5-0.5h0Zm0,2.05a0.5,0.5,0,0,0-.5.5v0.06a0.5,0.5,0,0,0,1,0v-0.06a0.5,0.5,0,0,0-.5-0.5h0Zm0,2.06a0.5,0.5,0,0,0-.5.5v0.05a0.5,0.5,0,0,0,1,0v-0.05a0.5,0.5,0,0,0-.5-0.5h0Zm0,2.05a0.5,0.5,0,0,0-.5.5v0.05a0.5,0.5,0,0,0,1,0v-0.05a0.5,0.5,0,0,0-.5-0.5h0Zm0,2.05a0.5,0.5,0,0,0-.5.5v0.05a0.5,0.5,0,0,0,1,0v-0.05a0.5,0.5,0,0,0-.5-0.5h0Zm0,2.05a0.5,0.5,0,0,0-.5.5v0.06a0.5,0.5,0,0,0,1,0v-0.06a0.5,0.5,0,0,0-.5-0.5h0Zm0,2.06a0.5,0.5,0,0,0-.5.5v0.05a0.5,0.5,0,0,0,1,0v-0.05a0.5,0.5,0,0,0-.5-0.5h0Zm0,2.05a0.5,0.5,0,0,0-.5.5v0.05a0.5,0.5,0,0,0,1,0v-0.05a0.5,0.5,0,0,0-.5-0.5h0Zm0,2.05a0.5,0.5,0,0,0-.5.5v0.05a0.5,0.5,0,0,0,1,0V182.5a0.5,0.5,0,0,0-.5-0.5h0Zm0,2.05a0.5,0.5,0,0,0-.5.5v0.06a0.5,0.5,0,0,0,1,0v-0.06a0.5,0.5,0,0,0-.5-0.5h0Zm0,2.06a0.5,0.5,0,0,0-.5.5v0.05a0.5,0.5,0,0,0,1,0v-0.05a0.5,0.5,0,0,0-.5-0.5h0Zm0,2.05a0.5,0.5,0,0,0-.5.5v0.05a0.5,0.5,0,0,0,1,0v-0.05a0.5,0.5,0,0,0-.5-0.5h0Zm0,2.05a0.5,0.5,0,0,0-.5.5v0.05a0.5,0.5,0,0,0,1,0v-0.05a0.5,0.5,0,0,0-.5-0.5h0Zm0,2.05a0.5,0.5,0,0,0-.5.5v0.06a0.5,0.5,0,0,0,1,0v-0.06a0.5,0.5,0,0,0-.5-0.5h0Zm0,2.06a0.5,0.5,0,0,0-.5.5v0.05a0.5,0.5,0,0,0,1,0v-0.05a0.5,0.5,0,0,0-.5-0.5h0Zm0,2.05a0.5,0.5,0,0,0-.5.5v0.05a0.5,0.5,0,0,0,1,0v-0.05a0.5,0.5,0,0,0-.5-0.5h0Zm0,2.05a0.5,0.5,0,0,0-.5.5V199a0.5,0.5,0,0,0,1,0v-0.05a0.5,0.5,0,0,0-.5-0.5h0Zm0,2.05a0.5,0.5,0,0,0-.5.5V201a0.5,0.5,0,0,0,1,0V201a0.5,0.5,0,0,0-.5-0.5h0Zm0,2.06a0.5,0.5,0,0,0-.5.5v0.05a0.5,0.5,0,0,0,1,0V203a0.5,0.5,0,0,0-.5-0.5h0Zm0,2.05a0.5,0.5,0,0,0-.5.5v0.05a0.5,0.5,0,0,0,1,.07,0.5,0.5,0,0,0,.5.44H30.7a0.5,0.5,0,0,0,0-1H30.65a0.5,0.5,0,0,0-.49.41,0.5,0.5,0,0,0-.5-0.47h0Zm3.1,0.06H32.7a0.5,0.5,0,1,0,0,1h0.06a0.5,0.5,0,0,0,0-1h0Zm2.05,0H34.76a0.5,0.5,0,0,0,0,1h0.05a0.5,0.5,0,1,0,0-1h0Zm2.06,0H36.81a0.5,0.5,0,0,0,0,1h0.06a0.5,0.5,0,0,0,0-1h0Zm2.05,0H38.87a0.5,0.5,0,1,0,0,1h0.05a0.5,0.5,0,0,0,0-1h0Zm2.06,0H40.92a0.5,0.5,0,0,0,0,1H41a0.5,0.5,0,1,0,0-1h0Zm2.06,0H43a0.5,0.5,0,0,0,0,1H43a0.5,0.5,0,0,0,0-1h0Zm2.05,0H45a0.5,0.5,0,1,0,0,1h0.05a0.5,0.5,0,0,0,0-1h0Zm2.06,0H47.09a0.5,0.5,0,1,0,0,1h0.06a0.5,0.5,0,1,0,0-1h0Zm2.05,0H49.14a0.5,0.5,0,0,0,0,1H49.2a0.5,0.5,0,0,0,0-1h0Zm2.06,0H51.2a0.5,0.5,0,1,0,0,1h0.06a0.5,0.5,0,1,0,0-1h0Zm2.05,0H53.25a0.5,0.5,0,0,0,0,1h0.05a0.5,0.5,0,1,0,0-1h0Zm2.06,0H55.31a0.5,0.5,0,0,0,0,1h0.06a0.5,0.5,0,1,0,0-1h0Zm2.06,0H57.36a0.5,0.5,0,0,0,0,1h0.06a0.5,0.5,0,0,0,0-1h0Zm2.05,0H59.42a0.5,0.5,0,0,0,0,1h0.05a0.5,0.5,0,1,0,0-1h0Zm2.06,0H61.47a0.5,0.5,0,0,0,0,1h0.06a0.5,0.5,0,0,0,0-1h0Zm2.05,0H63.53a0.5,0.5,0,1,0,0,1h0.05a0.5,0.5,0,0,0,0-1h0Zm2.06,0H65.58a0.5,0.5,0,0,0,0,1h0.06a0.5,0.5,0,0,0,0-1h0Zm2.05,0H67.64a0.5,0.5,0,1,0,0,1h0.05a0.5,0.5,0,0,0,0-1h0Zm2.06,0H69.69a0.5,0.5,0,1,0,0,1h0.06a0.5,0.5,0,1,0,0-1h0Zm2.05,0H71.75a0.5,0.5,0,0,0,0,1H71.8a0.5,0.5,0,1,0,0-1h0Zm2.06,0H73.8a0.5,0.5,0,0,0,0,1h0.06a0.5,0.5,0,1,0,0-1h0Zm2.06,0H75.86a0.5,0.5,0,0,0,0,1h0.06a0.5,0.5,0,0,0,0-1h0Zm2.05,0H77.91a0.5,0.5,0,1,0,0,1H78a0.5,0.5,0,0,0,0-1h0Zm2.06,0H80a0.5,0.5,0,0,0,0,1H80a0.5,0.5,0,0,0,0-1h0Zm2.05,0H82a0.5,0.5,0,1,0,0,1h0.05a0.5,0.5,0,0,0,0-1h0Zm2.06,0H84.08a0.5,0.5,0,1,0,0,1h0.06a0.5,0.5,0,0,0,0-1h0Zm2.05,0H86.13a0.5,0.5,0,1,0,0,1h0.05a0.5,0.5,0,0,0,0-1h0Zm2.06,0H88.19a0.5,0.5,0,1,0,0,1h0.06a0.5,0.5,0,1,0,0-1h0Zm2.05,0H90.24a0.5,0.5,0,0,0,0,1H90.3a0.5,0.5,0,1,0,0-1h0Zm2.06,0H92.3a0.5,0.5,0,0,0,0,1h0.06a0.5,0.5,0,0,0,0-1h0Zm2.06,0H94.35a0.5,0.5,0,0,0,0,1h0.06a0.5,0.5,0,0,0,0-1h0Zm2.05,0H96.41a0.5,0.5,0,1,0,0,1h0.05a0.5,0.5,0,0,0,0-1h0Zm2.06,0H98.46a0.5,0.5,0,0,0,0,1h0.06a0.5,0.5,0,0,0,0-1h0Zm2.05,0h-0.05a0.5,0.5,0,1,0,0,1h0.05a0.5,0.5,0,1,0,0-1h0Zm2.06,0h-0.06a0.5,0.5,0,0,0,0,1h0.06a0.5,0.5,0,0,0,0-1h0Zm2.05,0h-0.05a0.5,0.5,0,0,0,0,1h0.05a0.5,0.5,0,0,0,0-1h0Zm2.06,0h-0.06a0.5,0.5,0,0,0,0,1h0.06a0.5,0.5,0,0,0,0-1h0Zm2.06,0h-0.06a0.5,0.5,0,1,0,0,1h0.06a0.5,0.5,0,0,0,0-1h0Zm2.05,0h-0.05a0.5,0.5,0,0,0,0,1h0.05a0.5,0.5,0,1,0,0-1h0Zm2.06,0h-0.06a0.5,0.5,0,0,0,0,1h0.06a0.5,0.5,0,0,0,0-1h0Zm2.05,0H114.9a0.5,0.5,0,0,0,0,1H115a0.5,0.5,0,0,0,0-1h0Zm2.06,0H117a0.5,0.5,0,0,0,0,1H117a0.5,0.5,0,0,0,0-1h0Zm2.05,0H119a0.5,0.5,0,1,0,0,1h0.05a0.5,0.5,0,0,0,0-1h0Zm2.06,0h-0.06a0.5,0.5,0,0,0,0,1h0.06a0.5,0.5,0,0,0,0-1h0Zm2.05,0h-0.05a0.5,0.5,0,0,0,0,1h0.05a0.5,0.5,0,1,0,0-1h0Zm2.06,0h-0.06a0.5,0.5,0,0,0,0,1h0.06a0.5,0.5,0,1,0,0-1h0Zm2.06,0h-0.06a0.5,0.5,0,0,0,0,1h0.06a0.5,0.5,0,0,0,0-1h0Zm2.05,0h-0.05a0.5,0.5,0,1,0,0,1h0.05a0.5,0.5,0,0,0,0-1h0Zm2.06,0h-0.06a0.5,0.5,0,1,0,0,1h0.06a0.5,0.5,0,0,0,0-1h0Zm2.05,0H133.4a0.5,0.5,0,0,0,0,1h0.05a0.5,0.5,0,1,0,0-1h0Zm2.06,0h-0.06a0.5,0.5,0,0,0,0,1h0.06a0.5,0.5,0,0,0,0-1h0Zm2.05,0h-0.05a0.5,0.5,0,1,0,0,1h0.05a0.5,0.5,0,0,0,0-1h0Zm2.06,0h-0.06a0.5,0.5,0,0,0,0,1h0.06a0.5,0.5,0,0,0,0-1h0Zm2.05,0h-0.05a0.5,0.5,0,1,0,0,1h0.05a0.5,0.5,0,1,0,0-1h0Zm2.06,0h-0.06a0.5,0.5,0,0,0,0,1h0.06a0.5,0.5,0,0,0,0-1h0Zm2.06,0h-0.06a0.5,0.5,0,0,0,0,1h0.06a0.5,0.5,0,0,0,0-1h0Zm2.05,0h-0.05a0.5,0.5,0,1,0,0,1h0.05a0.5,0.5,0,0,0,0-1h0Zm2.06,0h-0.06a0.5,0.5,0,1,0,0,1h0.06a0.5,0.5,0,0,0,0-1h0Zm2.05,0h-0.05a0.5,0.5,0,0,0,0,1h0.05a0.5,0.5,0,1,0,0-1h0Zm2.06,0h-0.06a0.5,0.5,0,0,0,0,1H154a0.5,0.5,0,0,0,0-1h0Zm2.05,0H156a0.5,0.5,0,0,0,0,1h0.05a0.5,0.5,0,0,0,0-1h0Zm2.06,0h-0.06a0.5,0.5,0,0,0,0,1h0.06a0.5,0.5,0,0,0,0-1h0Zm2.06,0h-0.06a0.5,0.5,0,1,0,0,1h0.06a0.5,0.5,0,0,0,0-1h0Zm2.05,0h-0.05a0.5,0.5,0,0,0,0,1h0.05a0.5,0.5,0,1,0,0-1h0Zm2.06,0h-0.06a0.5,0.5,0,0,0,0,1h0.06a0.5,0.5,0,0,0,0-1h0Zm2.05,0h-0.05a0.5,0.5,0,0,0,0,1h0.05a0.5,0.5,0,0,0,0-1h0Zm2.06,0h-0.06a0.5,0.5,0,0,0,0,1h0.06a0.5,0.5,0,0,0,0-1h0Zm2.05,0h-0.05a0.5,0.5,0,1,0,0,1h0.05a0.5,0.5,0,0,0,0-1h0Zm2.06,0h-0.06a0.5,0.5,0,0,0,0,1h0.06a0.5,0.5,0,0,0,0-1h0Zm2.05,0H174.5a0.5,0.5,0,0,0,0,1h0.05a0.5,0.5,0,1,0,0-1h0Zm2.06,0h-0.06a0.5,0.5,0,0,0,0,1h0.06a0.5,0.5,0,0,0,0-1h0Zm2.06,0h-0.06a0.5,0.5,0,0,0,0,1h0.06a0.5,0.5,0,0,0,0-1h0Zm2.05,0h-0.05a0.5,0.5,0,1,0,0,1h0.05a0.5,0.5,0,0,0,0-1h0Zm2.06,0h-0.06a0.5,0.5,0,1,0,0,1h0.06a0.5,0.5,0,0,0,0-1h0Zm2.05,0h-0.05a0.5,0.5,0,0,0,0,1h0.05a0.5,0.5,0,1,0,0-1h0Zm2.06,0h-0.06a0.5,0.5,0,0,0,0,1h0.06a0.5,0.5,0,0,0,0-1h0Zm2.05,0h-0.05a0.5,0.5,0,1,0,0,1h0.05a0.5,0.5,0,0,0,0-1h0Zm2.06,0h-0.06a0.5,0.5,0,0,0,0,1H191a0.5,0.5,0,0,0,0-1h0Zm2.05,0H193a0.5,0.5,0,1,0,0,1H193a0.5,0.5,0,1,0,0-1h0Zm2.06,0H195a0.5,0.5,0,0,0,0,1h0.06a0.5,0.5,0,0,0,0-1h0Zm2.06,0H197.1a0.5,0.5,0,0,0,0,1h0.06a0.5,0.5,0,0,0,0-1h0Zm2.05,0h-0.05a0.5,0.5,0,1,0,0,1h0.05a0.5,0.5,0,0,0,0-1h0Zm2.06,0h-0.06a0.5,0.5,0,1,0,0,1h0.06a0.5,0.5,0,0,0,0-1h0Zm2.05,0h-0.05a0.5,0.5,0,0,0,0,1h0.05a0.5,0.5,0,1,0,0-1h0Zm2.06,0h-0.06a0.5,0.5,0,0,0,0,1h0.06a0.5,0.5,0,0,0,0-1h0Zm2.05,0h-0.05a0.5,0.5,0,0,0,0,1h0.05a0.5,0.5,0,0,0,0-1h0Zm2.06,0h-0.06a0.5,0.5,0,0,0,0,1h0.06a0.5,0.5,0,0,0,0-1h0Zm2.06,0h-0.06a0.5,0.5,0,1,0,0,1h0.06a0.5,0.5,0,0,0,0-1h0Zm2.05,0h-0.05a0.5,0.5,0,0,0,0,1h0.05a0.5,0.5,0,1,0,0-1h0Zm2.06,0H215.6a0.5,0.5,0,0,0,0,1h0.06a0.5,0.5,0,0,0,0-1h0Zm2.05,0h-0.05a0.5,0.5,0,0,0,0,1h0.05a0.5,0.5,0,0,0,0-1h0Zm2.06,0h-0.06a0.5,0.5,0,0,0,0,1h0.06a0.5,0.5,0,0,0,0-1h0Zm2.05,0h-0.05a0.5,0.5,0,1,0,0,1h0.05a0.5,0.5,0,0,0,0-1h0Zm2.06,0h-0.06a0.5,0.5,0,0,0,0,1h0.06a0.5,0.5,0,0,0,0-1h0Zm2.05,0h-0.05a0.5,0.5,0,0,0,0,1h0.05a0.5,0.5,0,1,0,0-1h0Zm2.06,0h-0.06a0.5,0.5,0,0,0,0,1H228a0.5,0.5,0,0,0,0-1h0Zm2.06,0H230a0.5,0.5,0,0,0,0,1H230a0.5,0.5,0,0,0,0-1h0Zm2.05,0H232a0.5,0.5,0,1,0,0,1h0.05a0.5,0.5,0,0,0,0-1h0Zm2.06,0h-0.06a0.5,0.5,0,1,0,0,1h0.06a0.5,0.5,0,0,0,0-1h0Zm2.05,0h-0.05a0.5,0.5,0,0,0,0,1h0.05a0.5,0.5,0,1,0,0-1h0Zm2.06,0H238.2a0.5,0.5,0,0,0,0,1h0.06a0.5,0.5,0,0,0,0-1h0Zm2.05,0h-0.05a0.5,0.5,0,1,0,0,1h0.05a0.5,0.5,0,0,0,0-1h0Zm2.06,0h-0.06a0.5,0.5,0,0,0,0,1h0.06a0.5,0.5,0,0,0,0-1h0Zm2.05,0h-0.05a0.5,0.5,0,1,0,0,1h0.05a0.5,0.5,0,1,0,0-1h0Zm2.06,0h-0.06a0.5,0.5,0,0,0,0,1h0.06a0.5,0.5,0,0,0,0-1h0Zm2.06,0h-0.06a0.5,0.5,0,0,0,0,1h0.06a0.5,0.5,0,0,0,0-1h0Zm2.05,0h-0.05a0.5,0.5,0,1,0,0,1h0.05a0.5,0.5,0,0,0,0-1h0Zm2.06,0h-0.06a0.5,0.5,0,1,0,0,1h0.06a0.5,0.5,0,0,0,0-1h0Zm2.05,0h-0.05a0.5,0.5,0,0,0,0,1h0.05a0.5,0.5,0,1,0,0-1h0Zm2.06,0H256.7a0.5,0.5,0,0,0,0,1h0.06a0.5,0.5,0,0,0,0-1h0Zm2.05,0h-0.05a0.5,0.5,0,0,0,0,1h0.05a0.5,0.5,0,0,0,0-1h0Zm2.06,0h-0.06a0.5,0.5,0,0,0,0,1h0.06a0.5,0.5,0,0,0,0-1h0Zm2.06,0h-0.06a0.5,0.5,0,0,0,0,1h0.06a0.5,0.5,0,0,0,0-1h0Zm2.05,0h-0.05a0.5,0.5,0,0,0,0,1H265a0.5,0.5,0,0,0,0-1h0Zm2.06,0H267a0.5,0.5,0,0,0,0,1H267a0.5,0.5,0,0,0,0-1h0Zm3-.1a0.5,0.5,0,0,1-1,.1H269a0.5,0.5,0,0,0,0,1h0.05a0.5,0.5,0,0,1,1,0,0.5,0.5,0,0,0,.5-0.5v-0.06a0.5,0.5,0,0,0-.5-0.5h0Zm0-2.05a0.5,0.5,0,0,0-.5.5v0.05a0.5,0.5,0,0,0,1,0V203a0.5,0.5,0,0,0-.5-0.5h0Zm0-2.05a0.5,0.5,0,0,0-.5.5V201a0.5,0.5,0,1,0,1,0V201a0.5,0.5,0,0,0-.5-0.5h0Zm0-2.05a0.5,0.5,0,0,0-.5.5V199a0.5,0.5,0,1,0,1,0V198.9a0.5,0.5,0,0,0-.5-0.5h0Zm0-2.06a0.5,0.5,0,0,0-.5.5v0.06a0.5,0.5,0,0,0,1,0v-0.06a0.5,0.5,0,0,0-.5-0.5h0Zm0-2.05a0.5,0.5,0,0,0-.5.5v0.05a0.5,0.5,0,1,0,1,0v-0.05a0.5,0.5,0,0,0-.5-0.5h0Zm0-2.05a0.5,0.5,0,0,0-.5.5v0.05a0.5,0.5,0,0,0,1,0v-0.05a0.5,0.5,0,0,0-.5-0.5h0Zm0-2.05a0.5,0.5,0,0,0-.5.5v0.05a0.5,0.5,0,0,0,1,0v-0.05a0.5,0.5,0,0,0-.5-0.5h0Zm0-2.06a0.5,0.5,0,0,0-.5.5v0.06a0.5,0.5,0,0,0,1,0v-0.06a0.5,0.5,0,0,0-.5-0.5h0Zm0-2.05a0.5,0.5,0,0,0-.5.5v0.05a0.5,0.5,0,0,0,1,0v-0.05a0.5,0.5,0,0,0-.5-0.5h0Zm0-2.05a0.5,0.5,0,0,0-.5.5v0.05a0.5,0.5,0,0,0,1,0v-0.05a0.5,0.5,0,0,0-.5-0.5h0Zm0-2.05a0.5,0.5,0,0,0-.5.5v0.05a0.5,0.5,0,0,0,1,0v-0.05a0.5,0.5,0,0,0-.5-0.5h0Zm0-2.06a0.5,0.5,0,0,0-.5.5v0.06a0.5,0.5,0,0,0,1,0v-0.06a0.5,0.5,0,0,0-.5-0.5h0Zm0-2.05a0.5,0.5,0,0,0-.5.5v0.05a0.5,0.5,0,0,0,1,0v-0.05a0.5,0.5,0,0,0-.5-0.5h0Zm0-2.05a0.5,0.5,0,0,0-.5.5v0.05a0.5,0.5,0,0,0,1,0V176.3a0.5,0.5,0,0,0-.5-0.5h0Zm0-2.05a0.5,0.5,0,0,0-.5.5v0.05a0.5,0.5,0,0,0,1,0v-0.05a0.5,0.5,0,0,0-.5-0.5h0Zm0-2.06a0.5,0.5,0,0,0-.5.5v0.06a0.5,0.5,0,1,0,1,0v-0.06a0.5,0.5,0,0,0-.5-0.5h0Zm0-2.05a0.5,0.5,0,0,0-.5.5v0.05a0.5,0.5,0,0,0,1,0v-0.05a0.5,0.5,0,0,0-.5-0.5h0Zm0-2.05a0.5,0.5,0,0,0-.5.5v0.05a0.5,0.5,0,0,0,1,0v-0.05a0.5,0.5,0,0,0-.5-0.5h0Zm0-2.05a0.5,0.5,0,0,0-.5.5v0.05a0.5,0.5,0,1,0,1,0V166a0.5,0.5,0,0,0-.5-0.5h0Zm0-2.05a0.5,0.5,0,0,0-.5.5V164a0.5,0.5,0,0,0,1,0V164a0.5,0.5,0,0,0-.5-0.5h0Zm0-2.06a0.5,0.5,0,0,0-.5.5V162a0.5,0.5,0,0,0,1,0v-0.06a0.5,0.5,0,0,0-.5-0.5h0Zm0-2.05a0.5,0.5,0,0,0-.5.5v0.05a0.5,0.5,0,0,0,1,0v-0.05a0.5,0.5,0,0,0-.5-0.5h0Zm0-2.05a0.5,0.5,0,0,0-.5.5v0.05a0.5,0.5,0,0,0,1,0V157.8a0.5,0.5,0,0,0-.5-0.5h0Zm0-2.05a0.5,0.5,0,0,0-.5.5v0.05a0.5,0.5,0,0,0,1,0v-0.05a0.5,0.5,0,0,0-.5-0.5h0Zm0-2.06a0.5,0.5,0,0,0-.5.5v0.06a0.5,0.5,0,1,0,1,0v-0.06a0.5,0.5,0,0,0-.5-0.5h0Zm0-2.05a0.5,0.5,0,0,0-.5.5v0.05a0.5,0.5,0,0,0,1,0v-0.05a0.5,0.5,0,0,0-.5-0.5h0Zm0-2.05a0.5,0.5,0,0,0-.5.5v0.05a0.5,0.5,0,1,0,1,0v-0.05a0.5,0.5,0,0,0-.5-0.5h0Zm0-2.05a0.5,0.5,0,0,0-.5.5v0.05a0.5,0.5,0,1,0,1,0v-0.05a0.5,0.5,0,0,0-.5-0.5h0Zm0-2.06a0.5,0.5,0,0,0-.5.5v0.06a0.5,0.5,0,0,0,1,0v-0.06a0.5,0.5,0,0,0-.5-0.5h0Zm0-2.05a0.5,0.5,0,0,0-.5.5v0.05a0.5,0.5,0,1,0,1,0v-0.05a0.5,0.5,0,0,0-.5-0.5h0Zm0-2.05a0.5,0.5,0,0,0-.5.5v0.05a0.5,0.5,0,0,0,1,0v-0.05a0.5,0.5,0,0,0-.5-0.5h0Zm0-2.06a0.5,0.5,0,0,0-.5.5v0.05a0.5,0.5,0,1,0,1,0v-0.05a0.5,0.5,0,0,0-.5-0.5h0Zm0-2.05a0.5,0.5,0,0,0-.5.5v0.05a0.5,0.5,0,1,0,1,0v-0.05a0.5,0.5,0,0,0-.5-0.5h0Zm0-2.05a0.5,0.5,0,0,0-.5.5v0.05a0.5,0.5,0,0,0,1,0V135.2a0.5,0.5,0,0,0-.5-0.5h0Zm0-2.05a0.5,0.5,0,0,0-.5.5v0.05a0.5,0.5,0,0,0,1,0v-0.05a0.5,0.5,0,0,0-.5-0.5h0Zm0-2.05a0.5,0.5,0,0,0-.5.5v0.05a0.5,0.5,0,0,0,1,0v-0.05a0.5,0.5,0,0,0-.5-0.5h0Zm0-2.05a0.5,0.5,0,0,0-.5.5v0.05a0.5,0.5,0,0,0,1,0V129a0.5,0.5,0,0,0-.5-0.5h0Zm0-2.05a0.5,0.5,0,0,0-.5.5V127a0.5,0.5,0,0,0,1,0V127a0.5,0.5,0,0,0-.5-0.5h0Zm0-2.06a0.5,0.5,0,0,0-.5.5V125a0.5,0.5,0,1,0,1,0v-0.06a0.5,0.5,0,0,0-.5-0.5h0Zm0-2.05a0.5,0.5,0,0,0-.5.5v0.05a0.5,0.5,0,0,0,1,0v-0.05a0.5,0.5,0,0,0-.5-0.5h0Zm0-2.05a0.5,0.5,0,0,0-.5.5v0.05a0.5,0.5,0,0,0,1,0v-0.05a0.5,0.5,0,0,0-.5-0.5h0Zm0-2.05a0.5,0.5,0,0,0-.5.5v0.05a0.5,0.5,0,0,0,1,0v-0.05a0.5,0.5,0,0,0-.5-0.5h0Zm0-2.05a0.5,0.5,0,0,0-.5.5v0.05a0.5,0.5,0,0,0,1,0V116.7a0.5,0.5,0,0,0-.5-0.5h0Zm0-2.05a0.5,0.5,0,0,0-.5.5v0.05a0.5,0.5,0,1,0,1,0v-0.05a0.5,0.5,0,0,0-.5-0.5h0Zm0-2.05a0.5,0.5,0,0,0-.5.5v0.05a0.5,0.5,0,1,0,1,0v-0.05a0.5,0.5,0,0,0-.5-0.5h0Zm0-2.05a0.5,0.5,0,0,0-.5.5v0.05a0.5,0.5,0,0,0,1,0v-0.05a0.5,0.5,0,0,0-.5-0.5h0Zm0-2.05a0.5,0.5,0,0,0-.5.5v0.05a0.5,0.5,0,0,0,1,0v-0.05a0.5,0.5,0,0,0-.5-0.5h0Zm0-2.06a0.5,0.5,0,0,0-.5.5v0.06a0.5,0.5,0,0,0,1,0v-0.06a0.5,0.5,0,0,0-.5-0.5h0Zm0-2.05a0.5,0.5,0,0,0-.5.5v0.05a0.5,0.5,0,1,0,1,0v-0.05a0.5,0.5,0,0,0-.5-0.5h0Zm0-2.05a0.5,0.5,0,0,0-.5.5v0.05a0.5,0.5,0,0,0,1,0v-0.05a0.5,0.5,0,0,0-.5-0.5h0Zm0-2.05a0.5,0.5,0,0,0-.5.5v0.05a0.5,0.5,0,0,0,1,0v-0.05a0.5,0.5,0,0,0-.5-0.5h0Zm0-2.05a0.5,0.5,0,0,0-.5.5v0.05a0.5,0.5,0,0,0,1,0V98.21a0.5,0.5,0,0,0-.5-0.5h0Zm0-2.05a0.5,0.5,0,0,0-.5.5v0.05a0.5,0.5,0,1,0,1,0V96.15a0.5,0.5,0,0,0-.5-0.5h0Zm0-2.05a0.5,0.5,0,0,0-.5.5v0.05a0.5,0.5,0,1,0,1,0V94.1a0.5,0.5,0,0,0-.5-0.5h0Zm0-2.05a0.5,0.5,0,0,0-.5.5V92.1a0.5,0.5,0,1,0,1,0V92a0.5,0.5,0,0,0-.5-0.5h0Zm0-2.06a0.5,0.5,0,0,0-.5.5V90a0.5,0.5,0,0,0,1,0V90a0.5,0.5,0,0,0-.5-0.5h0Zm0-2.05a0.5,0.5,0,0,0-.5.5V88a0.5,0.5,0,0,0,1,0V87.93a0.5,0.5,0,0,0-.5-0.5h0Zm0-2.05a0.5,0.5,0,0,0-.5.5v0.05a0.5,0.5,0,0,0,1,0V85.88a0.5,0.5,0,0,0-.5-0.5h0Zm0-2.05a0.5,0.5,0,0,0-.5.5v0.05a0.5,0.5,0,0,0,1,0V83.82a0.5,0.5,0,0,0-.5-0.5h0Zm0-2.05a0.5,0.5,0,0,0-.5.5v0.05a0.5,0.5,0,0,0,1,0V81.77a0.5,0.5,0,0,0-.5-0.5h0Zm0-2.05a0.5,0.5,0,0,0-.5.5v0.05a0.5,0.5,0,1,0,1,0V79.71a0.5,0.5,0,0,0-.5-0.5h0Zm0-2.05a0.5,0.5,0,0,0-.5.5v0.05a0.5,0.5,0,1,0,1,0V77.66a0.5,0.5,0,0,0-.5-0.5h0Zm0-2.05a0.5,0.5,0,0,0-.5.5v0.05a0.5,0.5,0,1,0,1,0V75.6a0.5,0.5,0,0,0-.5-0.5h0ZM270,73a0.5,0.5,0,0,0-.5.5V73.6a0.5,0.5,0,1,0,1,0V73.55A0.5,0.5,0,0,0,270,73h0ZM270,71a0.5,0.5,0,0,0-.5.5v0.05a0.5,0.5,0,0,0,1,0V71.49A0.5,0.5,0,0,0,270,71h0Zm0-2.05a0.5,0.5,0,0,0-.5.5v0.05a0.5,0.5,0,0,0,1,0V69.44a0.5,0.5,0,0,0-.5-0.5h0Zm0-2.05a0.5,0.5,0,0,0-.5.5v0.05a0.5,0.5,0,0,0,1,0V67.38a0.5,0.5,0,0,0-.5-0.5h0Zm0-2.05a0.5,0.5,0,0,0-.5.5v0.05a0.5,0.5,0,0,0,1,0V65.33a0.5,0.5,0,0,0-.5-0.5h0Zm0-2.05a0.5,0.5,0,0,0-.5.5v0.05a0.5,0.5,0,1,0,1,0V63.27a0.5,0.5,0,0,0-.5-0.5h0Z" transform="translate(0 -1.23)" style="fill: #ff6b31"/>
    </g>
    <rect x="97.88" y="-1.68" width="103.94" height="172.42" transform="translate(65.32 233.15) rotate(-90)" style="fill: none;stroke: #ff6b31;stroke-linecap: round;stroke-linejoin: round;stroke-dasharray: 0.001,2;opacity: 0.4"/>
    <g>
      <path d="M86.77,4.86V6.63H86.21V4.86H84.47V4.31h1.74V2.54h0.55V4.31h1.74V4.86H86.77Z" transform="translate(0 -1.23)" style="fill: #94a0ab"/>
      <path d="M90.3,7.72V7.11l2-2c1.11-1.07,1.36-1.6,1.36-2.14a1.15,1.15,0,0,0-1.24-1.17,1.72,1.72,0,0,0-1.62,1.53l-0.7-.16a2.32,2.32,0,0,1,2.31-2,1.82,1.82,0,0,1,2,1.78c0,0.73-.36,1.41-1.62,2.6L91.28,7.09h3.18V7.72H90.3Z" transform="translate(0 -1.23)" style="fill: #94a0ab"/>
      <path d="M96.2,7.09h1.39V2.2a5.06,5.06,0,0,1-1.39.54V2.14a5.64,5.64,0,0,0,1.56-.77h0.58V7.09h1.38V7.72H96.2V7.09Z" transform="translate(0 -1.23)" style="fill: #94a0ab"/>
      <path d="M102.06,7.72A10.68,10.68,0,0,1,104.46,2h-3.6V1.36h4.38V2a9.87,9.87,0,0,0-2.39,5.72h-0.79Z" transform="translate(0 -1.23)" style="fill: #94a0ab"/>
      <path d="M106.65,3V3a1.6,1.6,0,1,1,3.18,0V3A1.6,1.6,0,1,1,106.65,3Zm2.48,0V3a0.93,0.93,0,1,0-1.78,0V3A0.93,0.93,0,1,0,109.13,3Zm2.75-1.65h0.67l-3.88,6.36H108Zm-1.15,4.72v0a1.6,1.6,0,1,1,3.18,0v0A1.6,1.6,0,1,1,110.72,6.09Zm2.48,0v0a0.93,0.93,0,1,0-1.78,0v0A0.93,0.93,0,1,0,113.2,6.09Z" transform="translate(0 -1.23)" style="fill: #94a0ab"/>
      <path d="M122.15,5.79h-2.61l-0.69,1.92H118.1l2.34-6.36h0.84l2.35,6.36h-0.8Zm-1.3-3.67-1.08,3h2.15Z" transform="translate(0 -1.23)" style="fill: #94a0ab"/>
      <path d="M125.35,7.72V1.36h2c2,0,3.17,1,3.17,3.17v0c0,2.17-1.13,3.17-3.17,3.17h-2Zm4.35-3.19C129.7,2.87,129,2,127.35,2H126.1V7.1h1.25c1.66,0,2.34-.89,2.34-2.55v0Z" transform="translate(0 -1.23)" style="fill: #94a0ab"/>
      <path d="M132.48,7.72V1.36h2c2,0,3.17,1,3.17,3.17v0c0,2.17-1.13,3.17-3.17,3.17h-2Zm4.35-3.19c0-1.66-.68-2.55-2.34-2.55h-1.25V7.1h1.25c1.66,0,2.34-.89,2.34-2.55v0Z" transform="translate(0 -1.23)" style="fill: #94a0ab"/>
      <path d="M139.66,1.36h0.75V7.72h-0.75V1.36Z" transform="translate(0 -1.23)" style="fill: #94a0ab"/>
      <path d="M144.93,2V7.72h-0.75V2h-2V1.36h4.77V2h-2Z" transform="translate(0 -1.23)" style="fill: #94a0ab"/>
      <path d="M148.69,1.36h0.75V7.72h-0.75V1.36Z" transform="translate(0 -1.23)" style="fill: #94a0ab"/>
      <path d="M151.49,4.55v0c0-2,1-3.31,2.78-3.31S157,2.5,157,4.53v0c0,2-1,3.3-2.78,3.3S151.49,6.58,151.49,4.55Zm4.78,0v0c0-1.8-.8-2.7-2-2.7s-2,.9-2,2.7v0c0,1.8.8,2.7,2,2.7S156.28,6.35,156.28,4.55Z" transform="translate(0 -1.23)" style="fill: #94a0ab"/>
      <path d="M159.07,7.72V1.36h0.87l3.24,5.29V1.36h0.7V7.72H163L159.77,2.4V7.72h-0.7Z" transform="translate(0 -1.23)" style="fill: #94a0ab"/>
      <path d="M169.64,5.79H167l-0.69,1.92h-0.75l2.34-6.36h0.84l2.35,6.36h-0.8Zm-1.3-3.67-1.08,3h2.15Z" transform="translate(0 -1.23)" style="fill: #94a0ab"/>
      <path d="M172.83,1.36h0.75V7.09h3.27V7.72h-4V1.36Z" transform="translate(0 -1.23)" style="fill: #94a0ab"/>
      <path d="M184.19,1.23a2.26,2.26,0,0,1,2.37,2l-0.68.15a1.66,1.66,0,0,0-1.69-1.52c-1.15,0-2,.93-2,2.7v0c0,1.85.85,2.7,1.94,2.7a1.77,1.77,0,0,0,1.76-1.58l0.68,0.15a2.4,2.4,0,0,1-2.44,2c-1.55,0-2.71-1.13-2.71-3.3v0C181.46,2.52,182.49,1.23,184.19,1.23Z" transform="translate(0 -1.23)" style="fill: #94a0ab"/>
      <path d="M188.52,1.36h0.75V7.09h3.27V7.72h-4V1.36Z" transform="translate(0 -1.23)" style="fill: #94a0ab"/>
      <path d="M194.55,1.36h0.75V7.72h-0.75V1.36Z" transform="translate(0 -1.23)" style="fill: #94a0ab"/>
      <path d="M200.08,1.23a2.26,2.26,0,0,1,2.37,2l-0.68.15a1.66,1.66,0,0,0-1.69-1.52c-1.15,0-2,.93-2,2.7v0c0,1.85.85,2.7,1.94,2.7a1.77,1.77,0,0,0,1.76-1.58l0.68,0.15a2.4,2.4,0,0,1-2.44,2c-1.55,0-2.71-1.13-2.71-3.3v0C197.35,2.52,198.38,1.23,200.08,1.23Z" transform="translate(0 -1.23)" style="fill: #94a0ab"/>
      <path d="M206.48,4.49L205.16,6V7.72h-0.75V1.36h0.75v3.7l3.15-3.7h0.88L207,4l2.39,3.77h-0.89Z" transform="translate(0 -1.23)" style="fill: #94a0ab"/>
      <path d="M210.52,5.86l0.7-.16a1.69,1.69,0,0,0,1.87,1.53,1.29,1.29,0,0,0,1.51-1.11c0-.6-0.34-0.94-1.33-1.22l-0.71-.19c-1.17-.32-1.68-0.88-1.68-1.78s0.77-1.71,2.23-1.71A2,2,0,0,1,215.29,3l-0.68.15a1.46,1.46,0,0,0-1.5-1.28c-1,0-1.47.43-1.47,1A1.12,1.12,0,0,0,212.74,4l0.72,0.19c1.41,0.37,1.94,1,1.94,1.88,0,1.1-1,1.8-2.31,1.8A2.3,2.3,0,0,1,210.52,5.86Z" transform="translate(0 -1.23)" style="fill: #94a0ab"/>
    </g>
    <g>
      <line x1="11.23" y1="17.54" x2="288.47" y2="17.54" style="fill: none;stroke: #94a0ab;stroke-miterlimit: 10;stroke-width: 0.25px"/>
      <rect x="11.11" y="16.72" width="0.25" height="1.63" style="fill: #94a0ab"/>
      <rect x="288.34" y="16.72" width="0.25" height="1.63" style="fill: #94a0ab"/>
    </g>
    <line x1="11.11" y1="17.54" x2="11.11" y2="72.71" style="fill: none;stroke: #94a0ab;stroke-linecap: round;stroke-linejoin: round;stroke-width: 0.5px;stroke-dasharray: 0.001,3"/>
    <line x1="288.59" y1="17.54" x2="288.59" y2="72.71" style="fill: none;stroke: #94a0ab;stroke-linecap: round;stroke-linejoin: round;stroke-width: 0.5px;stroke-dasharray: 0.001,3"/>
    <g>
      <line x1="298.42" y1="259.58" x2="225.05" y2="113.33" style="fill: none;stroke: #94a0ab;stroke-linecap: round;stroke-linejoin: round;stroke-dasharray: 0.001,2.5"/>
      <polygon points="300 262.73 299.59 257.37 298.3 259.34 295.95 259.2 300 262.73" style="fill: #94a0ab"/>
      <circle cx="225.07" cy="114.6" r="0.94" transform="translate(-27.49 111.86) rotate(-26.64)" style="fill: #94a0ab"/>
    </g>
    <g>
      <line x1="1.58" y1="259.58" x2="74.95" y2="113.33" style="fill: none;stroke: #94a0ab;stroke-linecap: round;stroke-linejoin: round;stroke-dasharray: 0.001,2.5"/>
      <polygon points="0 262.73 4.05 259.2 1.7 259.34 0.41 257.37 0 262.73" style="fill: #94a0ab"/>
      <circle cx="74.93" cy="114.6" r="0.94" transform="translate(-61.1 128.96) rotate(-63.36)" style="fill: #94a0ab"/>
    </g>
    <g style="opacity: 0.8">
      <path d="M287.59,74.94V240.22H12.11V74.94H287.59m1-1H11.11V241.22H288.59V73.94h0Z" transform="translate(0 -1.23)" style="fill: #ff6b31"/>
    </g>
  </g>
</svg>
