<svg xmlns="http://www.w3.org/2000/svg" viewBox="0 0 320 237.71">
  <g>
    <g style="opacity: 0.1">
      <polygon points="29.69 163.17 47.04 44.14 272.74 44.14 290.09 163.17 29.69 163.17" style="fill: #ff6b31"/>
    </g>
    <g style="opacity: 0.8">
      <path d="M271.87,45.14l17.06,117H30.84l17.06-117h224m0.86-1H47l-17.35,119H290.09l-17.35-119h0Z" transform="translate(0 0)" style="fill: #ff6b31"/>
    </g>
    <g style="opacity: 0.8">
      <path d="M260.39,84.08h-0.05a0.5,0.5,0,0,0,0,1h0.05l0.14,0-0.14-1h0Zm-2.05,0h-0.05a0.5,0.5,0,0,0,0,1h0.05a0.5,0.5,0,0,0,0-1h0Zm-2.05,0h-0.05a0.5,0.5,0,0,0,0,1h0.05a0.5,0.5,0,0,0,0-1h0Zm-2.05,0h-0.06a0.5,0.5,0,0,0,0,1h0.06a0.5,0.5,0,0,0,0-1h0Zm-2.06,0h-0.05a0.5,0.5,0,0,0,0,1h0.05a0.5,0.5,0,0,0,0-1h0Zm-2.05,0h-0.05a0.5,0.5,0,0,0,0,1h0.05a0.5,0.5,0,0,0,0-1h0Zm-2.05,0H248a0.5,0.5,0,0,0,0,1h0.05a0.5,0.5,0,0,0,0-1h0Zm-2.05,0h-0.05a0.5,0.5,0,0,0,0,1H246a0.5,0.5,0,0,0,0-1h0Zm-2.05,0h-0.05a0.5,0.5,0,0,0,0,1h0.05a0.5,0.5,0,0,0,0-1h0Zm-2.05,0h-0.05a0.5,0.5,0,0,0,0,1h0.05a0.5,0.5,0,0,0,0-1h0Zm-2.05,0h-0.05a0.5,0.5,0,0,0,0,1h0.05a0.5,0.5,0,0,0,0-1h0Zm-2.05,0h-0.05a0.5,0.5,0,0,0,0,1h0.05a0.5,0.5,0,0,0,0-1h0Zm-2.05,0h-0.06a0.5,0.5,0,0,0,0,1h0.06a0.5,0.5,0,0,0,0-1h0Zm-2.06,0h-0.05a0.5,0.5,0,0,0,0,1h0.05a0.5,0.5,0,0,0,0-1h0Zm-2.05,0h-0.05a0.5,0.5,0,0,0,0,1h0.05a0.5,0.5,0,0,0,0-1h0Zm-2.05,0h-0.05a0.5,0.5,0,0,0,0,1h0.05a0.5,0.5,0,0,0,0-1h0Zm-2.05,0h-0.05a0.5,0.5,0,0,0,0,1h0.05a0.5,0.5,0,0,0,0-1h0Zm-2.05,0H225.4a0.5,0.5,0,0,0,0,1h0.05a0.5,0.5,0,0,0,0-1h0Zm-2.05,0h-0.05a0.5,0.5,0,0,0,0,1h0.05a0.5,0.5,0,0,0,0-1h0Zm-2.05,0h-0.05a0.5,0.5,0,0,0,0,1h0.05a0.5,0.5,0,0,0,0-1h0Zm-2.05,0h-0.06a0.5,0.5,0,0,0,0,1h0.06a0.5,0.5,0,0,0,0-1h0Zm-2.06,0h-0.05a0.5,0.5,0,0,0,0,1h0.05a0.5,0.5,0,0,0,0-1h0Zm-2.05,0h-0.05a0.5,0.5,0,0,0,0,1h0.05a0.5,0.5,0,0,0,0-1h0Zm-2.05,0h-0.05a0.5,0.5,0,0,0,0,1h0.05a0.5,0.5,0,0,0,0-1h0Zm-2.05,0H211a0.5,0.5,0,0,0,0,1h0.05a0.5,0.5,0,0,0,0-1h0Zm-2.05,0H209a0.5,0.5,0,0,0,0,1H209a0.5,0.5,0,0,0,0-1h0Zm-2.05,0H206.9a0.5,0.5,0,0,0,0,1H207a0.5,0.5,0,0,0,0-1h0Zm-2.05,0h-0.05a0.5,0.5,0,0,0,0,1h0.05a0.5,0.5,0,0,0,0-1h0Zm-2.05,0h-0.06a0.5,0.5,0,0,0,0,1h0.06a0.5,0.5,0,0,0,0-1h0Zm-2.06,0h-0.05a0.5,0.5,0,0,0,0,1h0.05a0.5,0.5,0,0,0,0-1h0Zm-2.05,0h-0.05a0.5,0.5,0,0,0,0,1h0.05a0.5,0.5,0,0,0,0-1h0Zm-2.05,0h-0.05a0.5,0.5,0,0,0,0,1h0.05a0.5,0.5,0,0,0,0-1h0Zm-2.05,0h-0.05a0.5,0.5,0,0,0,0,1h0.05a0.5,0.5,0,0,0,0-1h0Zm-2.05,0h-0.05a0.5,0.5,0,0,0,0,1h0.05a0.5,0.5,0,0,0,0-1h0Zm-2.05,0h-0.05a0.5,0.5,0,0,0,0,1h0.05a0.5,0.5,0,0,0,0-1h0Zm-2.05,0h-0.05a0.5,0.5,0,0,0,0,1h0.05a0.5,0.5,0,0,0,0-1h0Zm-2.05,0h-0.05a0.5,0.5,0,0,0,0,1h0.05a0.5,0.5,0,0,0,0-1h0Zm-2.05,0H184.3a0.5,0.5,0,0,0,0,1h0.06a0.5,0.5,0,0,0,0-1h0Zm-2.06,0h-0.05a0.5,0.5,0,0,0,0,1h0.05a0.5,0.5,0,0,0,0-1h0Zm-2.05,0h-0.05a0.5,0.5,0,0,0,0,1h0.05a0.5,0.5,0,0,0,0-1h0Zm-2.05,0h-0.05a0.5,0.5,0,0,0,0,1h0.05a0.5,0.5,0,0,0,0-1h0Zm-2.05,0h-0.05a0.5,0.5,0,0,0,0,1h0.05a0.5,0.5,0,0,0,0-1h0Zm-2.05,0H174a0.5,0.5,0,0,0,0,1h0.05a0.5,0.5,0,0,0,0-1h0Zm-2.05,0H172a0.5,0.5,0,0,0,0,1H172a0.5,0.5,0,0,0,0-1h0Zm-2.05,0h-0.05a0.5,0.5,0,0,0,0,1H170a0.5,0.5,0,0,0,0-1h0Zm-2.05,0h-0.06a0.5,0.5,0,0,0,0,1h0.06a0.5,0.5,0,0,0,0-1h0Zm-2.06,0H165.8a0.5,0.5,0,0,0,0,1h0.05a0.5,0.5,0,0,0,0-1h0Zm-2.05,0h-0.05a0.5,0.5,0,0,0,0,1h0.05a0.5,0.5,0,0,0,0-1h0Zm-2.05,0h-0.05a0.5,0.5,0,0,0,0,1h0.05a0.5,0.5,0,0,0,0-1h0Zm-2.05,0h-0.05a0.5,0.5,0,0,0,0,1h0.05a0.5,0.5,0,0,0,0-1h0Zm-2.05,0h-0.05a0.5,0.5,0,0,0,0,1h0.05a0.5,0.5,0,0,0,0-1h0Zm-2.05,0h-0.05a0.5,0.5,0,0,0,0,1h0.05a0.5,0.5,0,0,0,0-1h0Zm-2.05,0h-0.05a0.5,0.5,0,0,0,0,1h0.05a0.5,0.5,0,0,0,0-1h0Zm-2.05,0h-0.06a0.5,0.5,0,0,0,0,1h0.06a0.5,0.5,0,0,0,0-1h0Zm-2.06,0h-0.05a0.5,0.5,0,0,0,0,1h0.05a0.5,0.5,0,0,0,0-1h0Zm-2.05,0h-0.05a0.5,0.5,0,0,0,0,1h0.05a0.5,0.5,0,0,0,0-1h0Zm-2.05,0h-0.05a0.5,0.5,0,0,0,0,1h0.05a0.5,0.5,0,0,0,0-1h0Zm-2.05,0H143.2a0.5,0.5,0,0,0,0,1h0.05a0.5,0.5,0,0,0,0-1h0Zm-2.05,0h-0.05a0.5,0.5,0,0,0,0,1h0.05a0.5,0.5,0,0,0,0-1h0Zm-2.05,0h-0.05a0.5,0.5,0,0,0,0,1h0.05a0.5,0.5,0,0,0,0-1h0Zm-2.05,0H137a0.5,0.5,0,0,0,0,1h0.05a0.5,0.5,0,0,0,0-1h0Zm-2.05,0H135a0.5,0.5,0,0,0,0,1H135a0.5,0.5,0,0,0,0-1h0Zm-2.05,0h-0.06a0.5,0.5,0,0,0,0,1H133a0.5,0.5,0,0,0,0-1h0Zm-2.06,0h-0.05a0.5,0.5,0,0,0,0,1h0.05a0.5,0.5,0,0,0,0-1h0Zm-2.05,0h-0.05a0.5,0.5,0,0,0,0,1h0.05a0.5,0.5,0,0,0,0-1h0Zm-2.05,0h-0.05a0.5,0.5,0,0,0,0,1h0.05a0.5,0.5,0,0,0,0-1h0Zm-2.05,0H124.7a0.5,0.5,0,0,0,0,1h0.05a0.5,0.5,0,0,0,0-1h0Zm-2.05,0h-0.05a0.5,0.5,0,0,0,0,1h0.05a0.5,0.5,0,0,0,0-1h0Zm-2.05,0h-0.05a0.5,0.5,0,0,0,0,1h0.05a0.5,0.5,0,0,0,0-1h0Zm-2.05,0h-0.05a0.5,0.5,0,0,0,0,1h0.05a0.5,0.5,0,0,0,0-1h0Zm-2.05,0h-0.06a0.5,0.5,0,0,0,0,1h0.06a0.5,0.5,0,0,0,0-1h0Zm-2.06,0h-0.05a0.5,0.5,0,0,0,0,1h0.05a0.5,0.5,0,0,0,0-1h0Zm-2.05,0h-0.05a0.5,0.5,0,0,0,0,1h0.05a0.5,0.5,0,0,0,0-1h0Zm-2.05,0h-0.05a0.5,0.5,0,0,0,0,1h0.05a0.5,0.5,0,0,0,0-1h0Zm-2.05,0h-0.05a0.5,0.5,0,0,0,0,1h0.05a0.5,0.5,0,0,0,0-1h0Zm-2.05,0h-0.05a0.5,0.5,0,0,0,0,1h0.05a0.5,0.5,0,0,0,0-1h0Zm-2.05,0h-0.05a0.5,0.5,0,0,0,0,1h0.05a0.5,0.5,0,0,0,0-1h0Zm-2.05,0H102.1a0.5,0.5,0,0,0,0,1h0.05a0.5,0.5,0,0,0,0-1h0Zm-2.05,0H100a0.5,0.5,0,0,0,0,1h0.06a0.5,0.5,0,0,0,0-1h0Zm-2.06,0H98a0.5,0.5,0,0,0,0,1H98a0.5,0.5,0,0,0,0-1h0Zm-2.05,0H95.93a0.5,0.5,0,0,0,0,1H96a0.5,0.5,0,0,0,0-1h0Zm-2.05,0H93.88a0.5,0.5,0,0,0,0,1h0.05a0.5,0.5,0,0,0,0-1h0Zm-2.05,0H91.82a0.5,0.5,0,0,0,0,1h0.05a0.5,0.5,0,0,0,0-1h0Zm-2.05,0H89.77a0.5,0.5,0,0,0,0,1h0.05a0.5,0.5,0,0,0,0-1h0Zm-2.05,0H87.71a0.5,0.5,0,0,0,0,1h0.05a0.5,0.5,0,0,0,0-1h0Zm-2.05,0H85.66a0.5,0.5,0,0,0,0,1h0.05a0.5,0.5,0,0,0,0-1h0Zm-2.05,0H83.6a0.5,0.5,0,0,0,0,1h0.05a0.5,0.5,0,0,0,0-1h0Zm-2.05,0H81.55a0.5,0.5,0,0,0,0,1H81.6a0.5,0.5,0,0,0,0-1h0Zm-2.06,0H79.49a0.5,0.5,0,0,0,0,1h0.05a0.5,0.5,0,0,0,0-1h0Zm-2.05,0H77.44a0.5,0.5,0,0,0,0,1h0.05a0.5,0.5,0,0,0,0-1h0Zm-2.05,0H75.38a0.5,0.5,0,0,0,0,1h0.05a0.5,0.5,0,0,0,0-1h0Zm-2.05,0H73.33a0.5,0.5,0,0,0,0,1h0.05a0.5,0.5,0,0,0,0-1h0Zm-2.05,0H71.27a0.5,0.5,0,0,0,0,1h0.05a0.5,0.5,0,0,0,0-1h0Zm-2.05,0H69.22a0.5,0.5,0,0,0,0,1h0.05a0.5,0.5,0,0,0,0-1h0Zm-2.05,0H67.16a0.5,0.5,0,0,0,0,1h0.05a0.5,0.5,0,0,0,0-1h0Zm-2.05,0H65.11a0.5,0.5,0,0,0,0,1h0.06a0.5,0.5,0,0,0,0-1h0Zm-2.06,0H63.05a0.5,0.5,0,0,0,0,1h0.05a0.5,0.5,0,0,0,0-1h0Zm-2.05,0H61a0.5,0.5,0,0,0,0,1h0.05a0.5,0.5,0,0,0,0-1h0Zm-1,0H59.64a0.5,0.5,0,0,0-.31.39v0.06a0.5,0.5,0,0,0,.42.57h0.07a0.5,0.5,0,0,0,.49-0.43V84.62A0.5,0.5,0,0,0,60,84.08h0Zm-0.48,2a0.5,0.5,0,0,0-.49.43v0.05a0.5,0.5,0,0,0,.42.57h0.07A0.5,0.5,0,0,0,60,86.7V86.65a0.5,0.5,0,0,0-.42-0.57H59.53Zm-0.3,2a0.5,0.5,0,0,0-.49.42v0.06a0.5,0.5,0,0,0,.42.57h0.07a0.5,0.5,0,0,0,.49-0.43V88.68a0.5,0.5,0,0,0-.42-0.57H59.24Zm-0.3,2a0.5,0.5,0,0,0-.49.43v0.06a0.5,0.5,0,0,0,.42.57h0.07a0.5,0.5,0,0,0,.49-0.43V90.72A0.5,0.5,0,0,0,59,90.15H58.94Zm-0.3,2a0.5,0.5,0,0,0-.49.43v0.05a0.5,0.5,0,0,0,.42.57h0.07a0.5,0.5,0,0,0,.49-0.43V92.75a0.5,0.5,0,0,0-.42-0.57H58.64Zm-0.3,2a0.5,0.5,0,0,0-.49.42v0.06a0.5,0.5,0,0,0,.42.57h0.07a0.5,0.5,0,0,0,.49-0.43V94.78a0.5,0.5,0,0,0-.42-0.57H58.35Zm-0.3,2a0.5,0.5,0,0,0-.49.43v0.06a0.5,0.5,0,0,0,.42.56H58a0.5,0.5,0,0,0,.49-0.43V96.82a0.5,0.5,0,0,0-.42-0.57H58.05Zm-0.3,2a0.5,0.5,0,0,0-.49.43v0h0a0.5,0.5,0,0,0,.42.57h0.07a0.5,0.5,0,0,0,.49-0.43V98.85a0.5,0.5,0,0,0-.42-0.57H57.75Zm-0.3,2a0.5,0.5,0,0,0-.49.43v0.05a0.5,0.5,0,0,0,.42.57h0.07a0.5,0.5,0,0,0,.49-0.43v-0.05a0.5,0.5,0,0,0-.42-0.57H57.46Zm-0.3,2a0.5,0.5,0,0,0-.49.42v0.06a0.5,0.5,0,0,0,.42.56h0.07a0.5,0.5,0,0,0,.49-0.43v-0.05a0.5,0.5,0,0,0-.42-0.57H57.16Zm-0.3,2a0.5,0.5,0,0,0-.49.43v0.06a0.5,0.5,0,0,0,.42.57h0.07a0.5,0.5,0,0,0,.49-0.43V105a0.5,0.5,0,0,0-.42-0.57H56.86Zm-0.3,2a0.5,0.5,0,0,0-.49.43v0.05a0.5,0.5,0,0,0,.42.57h0.07a0.5,0.5,0,0,0,.49-0.43V107a0.5,0.5,0,0,0-.42-0.57H56.57Zm-0.3,2a0.5,0.5,0,0,0-.49.42v0.06a0.5,0.5,0,0,0,.42.56h0.07a0.5,0.5,0,0,0,.49-0.43V109a0.5,0.5,0,0,0-.42-0.57H56.27Zm-0.3,2a0.5,0.5,0,0,0-.49.43V111a0.5,0.5,0,0,0,.42.56H56a0.5,0.5,0,0,0,.49-0.43v-0.05a0.5,0.5,0,0,0-.42-0.57H56Zm-0.3,2a0.5,0.5,0,0,0-.49.43V113a0.5,0.5,0,0,0,.42.57h0.07a0.5,0.5,0,0,0,.49-0.43v-0.05a0.5,0.5,0,0,0-.42-0.57H55.68Zm-0.3,2a0.5,0.5,0,0,0-.49.42V115a0.5,0.5,0,0,0,.42.57h0.07a0.5,0.5,0,0,0,.49-0.43v-0.05a0.5,0.5,0,0,0-.42-0.57H55.38Zm-0.3,2a0.5,0.5,0,0,0-.49.43v0.06a0.5,0.5,0,0,0,.42.56h0.07a0.5,0.5,0,0,0,.49-0.43v-0.05a0.5,0.5,0,0,0-.42-0.57H55.09Zm-0.3,2a0.5,0.5,0,0,0-.49.43v0.05a0.5,0.5,0,0,0,.42.57h0.07a0.5,0.5,0,0,0,.49-0.43v-0.05a0.5,0.5,0,0,0-.42-0.57H54.79Zm-0.3,2a0.5,0.5,0,0,0-.49.43v0.05a0.5,0.5,0,0,0,.42.57h0.07a0.5,0.5,0,0,0,.49-0.43v-0.05a0.5,0.5,0,0,0-.42-0.57H54.49Zm-0.3,2a0.5,0.5,0,0,0-.49.43v0.06a0.5,0.5,0,0,0,.42.56h0.07a0.5,0.5,0,0,0,.49-0.43v-0.05a0.5,0.5,0,0,0-.42-0.57H54.2Zm-0.3,2a0.5,0.5,0,0,0-.49.43v0h0a0.5,0.5,0,0,0,.42.57h0.07a0.5,0.5,0,0,0,.49-0.43v-0.05a0.5,0.5,0,0,0-.42-0.57H53.9Zm-0.3,2a0.5,0.5,0,0,0-.49.43v0.05a0.5,0.5,0,0,0,.42.57H53.6a0.5,0.5,0,0,0,.49-0.43v-0.05a0.5,0.5,0,0,0-.42-0.57H53.6Zm-0.3,2a0.5,0.5,0,0,0-.49.42v0.06a0.5,0.5,0,0,0,.42.56H53.3a0.5,0.5,0,0,0,.49-0.43v-0.05a0.5,0.5,0,0,0-.42-0.57H53.31Zm-0.3,2a0.5,0.5,0,0,0-.49.43h0v0.05a0.5,0.5,0,0,0,.42.57H53a0.5,0.5,0,0,0,.49-0.43v-0.05a0.5,0.5,0,0,0-.42-0.57H53Zm-0.3,2a0.5,0.5,0,0,0-.49.43v0.05a0.5,0.5,0,0,0,.42.57h0.07a0.5,0.5,0,0,0,.49-0.43v-0.05a0.5,0.5,0,0,0-.42-0.57H52.71Zm-0.3,2a0.5,0.5,0,0,0-.49.42v0.06a0.5,0.5,0,0,0,.42.57h0.07a0.5,0.5,0,0,0,.49-0.43v-0.05a0.5,0.5,0,0,0-.42-0.57H52.42Zm-0.3,2a0.5,0.5,0,0,0-.49.43v0.06A0.5,0.5,0,0,0,52,138h0.07a0.5,0.5,0,0,0,.49-0.43v-0.05a0.5,0.5,0,0,0-.42-0.57H52.12Zm-0.3,2a0.5,0.5,0,0,0-.49.43v0.05a0.5,0.5,0,0,0,.42.57h0.07a0.5,0.5,0,0,0,.49-0.43v-0.05A0.5,0.5,0,0,0,51.9,139H51.82Zm-0.3,2a0.5,0.5,0,0,0-.49.43v0.05a0.5,0.5,0,0,0,.42.57h0.07a0.5,0.5,0,0,0,.49-0.43v-0.05A0.5,0.5,0,0,0,51.6,141H51.53Zm-0.3,2a0.5,0.5,0,0,0-.49.43v0.06a0.5,0.5,0,0,0,.42.56h0.07a0.5,0.5,0,0,0,.49-0.43v-0.05A0.5,0.5,0,0,0,51.3,143H51.23Zm-0.3,2a0.5,0.5,0,0,0-.49.43v0.06a0.5,0.5,0,0,0,.42.57h0.07a0.5,0.5,0,0,0,.49-0.43v-0.05a0.5,0.5,0,0,0-.42-0.57H50.94Zm-0.3,2a0.5,0.5,0,0,0-.49.43v0.05a0.5,0.5,0,0,0,.42.57h0.07a0.5,0.5,0,0,0,.49-0.43v-0.05a0.5,0.5,0,0,0-.42-0.57H50.64Zm-0.3,2a0.5,0.5,0,0,0-.49.42v0.06a0.5,0.5,0,0,0,.42.56h0.07a0.5,0.5,0,0,0,.49-0.43v-0.05a0.5,0.5,0,0,0-.42-0.57H50.34Zm-0.3,2a0.5,0.5,0,0,0-.49.43v0.06a0.5,0.5,0,0,0,.42.57H50a0.5,0.5,0,0,0,.49-0.43v-0.05a0.5,0.5,0,0,0-.42-0.57H50Zm-0.3,2a0.5,0.5,0,0,0-.49.43v0.05a0.5,0.5,0,0,0,.42.57h0.07a0.5,0.5,0,0,0,.49-0.43v-0.05a0.5,0.5,0,0,0-.42-0.57H49.75Zm-0.3,2a0.5,0.5,0,0,0-.49.42v0.06a0.5,0.5,0,0,0,.42.57h0.07a0.5,0.5,0,0,0,.49-0.43v-0.05a0.5,0.5,0,0,0-.42-0.57H49.45Zm-0.3,2a0.5,0.5,0,0,0-.49.43v0.06a0.5,0.5,0,0,0,.42.56h0.07a0.5,0.5,0,0,0,.49-0.43v-0.05a0.5,0.5,0,0,0-.42-0.57H49.16Zm-0.3,2a0.5,0.5,0,0,0-.49.43v0.05a0.5,0.5,0,0,0,.42.57h0.07a0.5,0.5,0,0,0,.49-0.43v-0.05a0.5,0.5,0,0,0-.42-0.57H48.86Zm-0.3,2a0.5,0.5,0,0,0-.49.43v0.05a0.5,0.5,0,0,0,.42.57h0.07a0.5,0.5,0,0,0,.49-0.43v-0.05a0.5,0.5,0,0,0-.42-0.57H48.56Zm-0.3,2a0.5,0.5,0,0,0-.49.43v0.06a0.5,0.5,0,0,0,.42.56h0.07a0.5,0.5,0,0,0,.49-0.43v-0.05a0.5,0.5,0,0,0-.42-0.57H48.27Zm-0.3,2a0.5,0.5,0,0,0-.49.43v0h0a0.5,0.5,0,0,0,.42.57H48a0.5,0.5,0,0,0,.49-0.43V166a0.5,0.5,0,0,0-.42-0.57H48Zm-0.3,2a0.5,0.5,0,0,0-.49.43v0.05a0.5,0.5,0,0,0,.42.57h0.07a0.5,0.5,0,0,0,.49-0.43V168a0.5,0.5,0,0,0-.42-0.57H47.67Zm-0.3,2a0.5,0.5,0,0,0-.49.42v0.06a0.5,0.5,0,0,0,.42.56h0.07a0.5,0.5,0,0,0,.49-0.43V170a0.5,0.5,0,0,0-.42-0.57H47.38Zm-0.3,2a0.5,0.5,0,0,0-.49.43V172a0.5,0.5,0,0,0,.42.57h0.07a0.5,0.5,0,0,0,.49-0.43v-0.05a0.5,0.5,0,0,0-.42-0.57H47.08Zm-0.3,2a0.5,0.5,0,0,0-.49.43V174a0.5,0.5,0,0,0,.42.57h0.07a0.5,0.5,0,0,0,.49-0.43v-0.05a0.5,0.5,0,0,0-.42-0.57H46.79Zm-0.3,2A0.5,0.5,0,0,0,46,176V176a0.5,0.5,0,0,0,.42.57h0.07a0.5,0.5,0,0,0,.49-0.43v-0.05a0.5,0.5,0,0,0-.42-0.57H46.49Zm-0.3,2a0.5,0.5,0,0,0-.49.43v0.06a0.5,0.5,0,0,0,.42.56h0.07a0.5,0.5,0,0,0,.49-0.43v-0.05a0.5,0.5,0,0,0-.42-0.57H46.19Zm-0.3,2a0.5,0.5,0,0,0-.49.43v0.05a0.5,0.5,0,0,0,.42.57h0.07a0.5,0.5,0,0,0,.49-0.43v-0.05a0.5,0.5,0,0,0-.42-0.57H45.9Zm-0.3,2a0.5,0.5,0,0,0-.49.43v0.05a0.5,0.5,0,0,0,.42.57h0.07a0.5,0.5,0,0,0,.49-0.43v-0.05a0.5,0.5,0,0,0-.42-0.57H45.6Zm-0.3,2a0.5,0.5,0,0,0-.49.43v0.06a0.5,0.5,0,0,0,.42.56H45.3a0.5,0.5,0,0,0,.49-0.43v-0.05a0.5,0.5,0,0,0-.42-0.57H45.3Zm-0.3,2a0.5,0.5,0,0,0-.49.43v0.05a0.5,0.5,0,0,0,.42.57H45a0.5,0.5,0,0,0,.49-0.43v-0.05a0.5,0.5,0,0,0-.42-0.57H45Zm-0.3,2a0.5,0.5,0,0,0-.49.43v0.05a0.5,0.5,0,0,0,.42.57H44.7a0.5,0.5,0,0,0,.49-0.43v-0.05a0.5,0.5,0,0,0-.42-0.57H44.71Zm-0.59,1.33h0l-0.14,1,0.13,0h0.05a0.5,0.5,0,0,0,0-1h0Zm2.05,0H46.12a0.5,0.5,0,1,0,0,1h0.05a0.5,0.5,0,0,0,0-1h0Zm2.06,0H48.18a0.5,0.5,0,1,0,0,1h0.06a0.5,0.5,0,0,0,0-1h0Zm2.05,0H50.23a0.5,0.5,0,1,0,0,1h0.05a0.5,0.5,0,0,0,0-1h0Zm2.05,0H52.29a0.5,0.5,0,1,0,0,1h0.05a0.5,0.5,0,1,0,0-1h0Zm2.05,0H54.34a0.5,0.5,0,0,0,0,1H54.4a0.5,0.5,0,1,0,0-1h0Zm2.05,0H56.4a0.5,0.5,0,0,0,0,1h0.05a0.5,0.5,0,0,0,0-1h0Zm2.05,0H58.45a0.5,0.5,0,0,0,0,1h0.05a0.5,0.5,0,0,0,0-1h0Zm2.05,0H60.51a0.5,0.5,0,1,0,0,1h0.05a0.5,0.5,0,0,0,0-1h0Zm2.05,0H62.56a0.5,0.5,0,1,0,0,1h0.05a0.5,0.5,0,0,0,0-1h0Zm2.06,0H64.62a0.5,0.5,0,1,0,0,1h0.06a0.5,0.5,0,0,0,0-1h0Zm2.05,0H66.67a0.5,0.5,0,0,0,0,1h0.05a0.5,0.5,0,1,0,0-1h0Zm2.05,0H68.73a0.5,0.5,0,0,0,0,1h0.05a0.5,0.5,0,1,0,0-1h0Zm2.05,0H70.78a0.5,0.5,0,0,0,0,1h0.05a0.5,0.5,0,1,0,0-1h0Zm2.05,0H72.84a0.5,0.5,0,0,0,0,1h0.05a0.5,0.5,0,0,0,0-1h0Zm2.05,0H74.89a0.5,0.5,0,0,0,0,1h0.05a0.5,0.5,0,0,0,0-1h0Zm2.05,0H76.95a0.5,0.5,0,0,0,0,1H77a0.5,0.5,0,0,0,0-1h0Zm2.05,0H79a0.5,0.5,0,0,0,0,1h0.05a0.5,0.5,0,0,0,0-1h0Zm2.06,0H81.06a0.5,0.5,0,1,0,0,1h0.06a0.5,0.5,0,0,0,0-1h0Zm2.05,0H83.11a0.5,0.5,0,1,0,0,1h0.05a0.5,0.5,0,1,0,0-1h0Zm2.05,0H85.17a0.5,0.5,0,0,0,0,1h0.05a0.5,0.5,0,1,0,0-1h0Zm2.05,0H87.22a0.5,0.5,0,0,0,0,1h0.05a0.5,0.5,0,1,0,0-1h0Zm2.05,0H89.28a0.5,0.5,0,0,0,0,1h0.05a0.5,0.5,0,1,0,0-1h0Zm2.05,0H91.33a0.5,0.5,0,0,0,0,1h0.05a0.5,0.5,0,0,0,0-1h0Zm2.05,0H93.39a0.5,0.5,0,0,0,0,1h0.05a0.5,0.5,0,0,0,0-1h0Zm2.05,0H95.44a0.5,0.5,0,0,0,0,1H95.5a0.5,0.5,0,0,0,0-1h0Zm2.05,0H97.5a0.5,0.5,0,1,0,0,1h0.05a0.5,0.5,0,0,0,0-1h0Zm2.06,0H99.55a0.5,0.5,0,1,0,0,1h0.06a0.5,0.5,0,1,0,0-1h0Zm2.05,0h-0.05a0.5,0.5,0,1,0,0,1h0.05a0.5,0.5,0,0,0,0-1h0Zm2.05,0h-0.05a0.5,0.5,0,1,0,0,1h0.05a0.5,0.5,0,0,0,0-1h0Zm2.05,0h-0.05a0.5,0.5,0,0,0,0,1h0.05a0.5,0.5,0,1,0,0-1h0Zm2.05,0h-0.05a0.5,0.5,0,0,0,0,1h0.05a0.5,0.5,0,0,0,0-1h0Zm2.05,0h-0.05a0.5,0.5,0,1,0,0,1h0.05a0.5,0.5,0,1,0,0-1h0Zm2.05,0h-0.05a0.5,0.5,0,0,0,0,1h0.05a0.5,0.5,0,1,0,0-1h0Zm2.05,0h-0.05a0.5,0.5,0,0,0,0,1H114a0.5,0.5,0,0,0,0-1h0Zm2.06,0H116a0.5,0.5,0,1,0,0,1H116a0.5,0.5,0,1,0,0-1h0Zm2.05,0H118a0.5,0.5,0,0,0,0,1h0.05a0.5,0.5,0,0,0,0-1h0Zm2.05,0H120.1a0.5,0.5,0,1,0,0,1h0.05a0.5,0.5,0,0,0,0-1h0Zm2.05,0h-0.05a0.5,0.5,0,1,0,0,1h0.05a0.5,0.5,0,1,0,0-1h0Zm2.05,0h-0.05a0.5,0.5,0,0,0,0,1h0.05a0.5,0.5,0,0,0,0-1h0Zm2.05,0h-0.05a0.5,0.5,0,1,0,0,1h0.05a0.5,0.5,0,0,0,0-1h0Zm2.05,0h-0.05a0.5,0.5,0,0,0,0,1h0.05a0.5,0.5,0,1,0,0-1h0Zm2.05,0h-0.05a0.5,0.5,0,0,0,0,1h0.05a0.5,0.5,0,0,0,0-1h0Zm2.06,0h-0.06a0.5,0.5,0,0,0,0,1h0.06a0.5,0.5,0,0,0,0-1h0Zm2.05,0h-0.05a0.5,0.5,0,0,0,0,1h0.05a0.5,0.5,0,0,0,0-1h0Zm2.05,0h-0.05a0.5,0.5,0,0,0,0,1h0.05a0.5,0.5,0,0,0,0-1h0Zm2.05,0H138.6a0.5,0.5,0,0,0,0,1h0.05a0.5,0.5,0,1,0,0-1h0Zm2.05,0h-0.05a0.5,0.5,0,0,0,0,1h0.05a0.5,0.5,0,0,0,0-1h0Zm2.05,0h-0.05a0.5,0.5,0,1,0,0,1h0.05a0.5,0.5,0,0,0,0-1h0Zm2.05,0h-0.05a0.5,0.5,0,1,0,0,1h0.05a0.5,0.5,0,0,0,0-1h0Zm2.05,0h-0.05a0.5,0.5,0,0,0,0,1h0.05a0.5,0.5,0,0,0,0-1h0Zm2.05,0h-0.05a0.5,0.5,0,0,0,0,1h0.05a0.5,0.5,0,0,0,0-1h0Zm2.06,0h-0.06a0.5,0.5,0,1,0,0,1H151a0.5,0.5,0,0,0,0-1h0Zm2.05,0H153a0.5,0.5,0,0,0,0,1H153a0.5,0.5,0,0,0,0-1h0Zm2.05,0H155a0.5,0.5,0,1,0,0,1h0.05a0.5,0.5,0,0,0,0-1h0Zm2.05,0h-0.05a0.5,0.5,0,0,0,0,1h0.05a0.5,0.5,0,0,0,0-1h0Zm2.05,0h-0.05a0.5,0.5,0,0,0,0,1h0.05a0.5,0.5,0,0,0,0-1h0Zm2.05,0H161.2a0.5,0.5,0,1,0,0,1h0.05a0.5,0.5,0,0,0,0-1h0Zm2.05,0h-0.05a0.5,0.5,0,0,0,0,1h0.05a0.5,0.5,0,1,0,0-1h0Zm2.05,0h-0.05a0.5,0.5,0,0,0,0,1h0.05a0.5,0.5,0,0,0,0-1h0Zm2.06,0h-0.06a0.5,0.5,0,1,0,0,1h0.06a0.5,0.5,0,1,0,0-1h0Zm2.05,0h-0.05a0.5,0.5,0,0,0,0,1h0.05a0.5,0.5,0,0,0,0-1h0Zm2.05,0h-0.05a0.5,0.5,0,1,0,0,1h0.05a0.5,0.5,0,0,0,0-1h0Zm2.05,0h-0.05a0.5,0.5,0,0,0,0,1h0.05a0.5,0.5,0,1,0,0-1h0Zm2.05,0h-0.05a0.5,0.5,0,0,0,0,1h0.05a0.5,0.5,0,0,0,0-1h0Zm2.05,0h-0.05a0.5,0.5,0,0,0,0,1h0.05a0.5,0.5,0,0,0,0-1h0Zm2.05,0H179.7a0.5,0.5,0,0,0,0,1h0.05a0.5,0.5,0,1,0,0-1h0Zm2.05,0h-0.05a0.5,0.5,0,0,0,0,1h0.05a0.5,0.5,0,0,0,0-1h0Zm2.06,0h-0.06a0.5,0.5,0,0,0,0,1h0.06a0.5,0.5,0,0,0,0-1h0Zm2.05,0h-0.05a0.5,0.5,0,0,0,0,1h0.05a0.5,0.5,0,0,0,0-1h0Zm2.05,0h-0.05a0.5,0.5,0,0,0,0,1H188a0.5,0.5,0,0,0,0-1h0Zm2.05,0H190a0.5,0.5,0,0,0,0,1H190a0.5,0.5,0,1,0,0-1h0Zm2.05,0H192a0.5,0.5,0,0,0,0,1h0.05a0.5,0.5,0,0,0,0-1h0Zm2.05,0h-0.05a0.5,0.5,0,1,0,0,1h0.05a0.5,0.5,0,0,0,0-1h0Zm2.05,0h-0.05a0.5,0.5,0,1,0,0,1h0.05a0.5,0.5,0,0,0,0-1h0Zm2.05,0h-0.05a0.5,0.5,0,0,0,0,1h0.05a0.5,0.5,0,0,0,0-1h0Zm2.05,0h-0.05a0.5,0.5,0,0,0,0,1h0.05a0.5,0.5,0,0,0,0-1h0Zm2.06,0H202.3a0.5,0.5,0,1,0,0,1h0.06a0.5,0.5,0,0,0,0-1h0Zm2.05,0h-0.05a0.5,0.5,0,0,0,0,1h0.05a0.5,0.5,0,0,0,0-1h0Zm2.05,0h-0.05a0.5,0.5,0,1,0,0,1h0.05a0.5,0.5,0,0,0,0-1h0Zm2.05,0h-0.05a0.5,0.5,0,0,0,0,1h0.05a0.5,0.5,0,0,0,0-1h0Zm2.05,0h-0.05a0.5,0.5,0,0,0,0,1h0.05a0.5,0.5,0,0,0,0-1h0Zm2.05,0h-0.05a0.5,0.5,0,1,0,0,1h0.05a0.5,0.5,0,0,0,0-1h0Zm2.05,0h-0.05a0.5,0.5,0,0,0,0,1h0.05a0.5,0.5,0,1,0,0-1h0Zm2.05,0h-0.05a0.5,0.5,0,0,0,0,1h0.05a0.5,0.5,0,0,0,0-1h0Zm2.06,0h-0.06a0.5,0.5,0,1,0,0,1h0.06a0.5,0.5,0,1,0,0-1h0Zm2.05,0H220.8a0.5,0.5,0,0,0,0,1h0.05a0.5,0.5,0,0,0,0-1h0Zm2.05,0h-0.05a0.5,0.5,0,1,0,0,1h0.05a0.5,0.5,0,0,0,0-1h0Zm2.05,0h-0.05a0.5,0.5,0,0,0,0,1H225a0.5,0.5,0,1,0,0-1h0Zm2.05,0H227a0.5,0.5,0,0,0,0,1H227a0.5,0.5,0,0,0,0-1h0Zm2.05,0H229a0.5,0.5,0,0,0,0,1h0.05a0.5,0.5,0,0,0,0-1h0Zm2.05,0h-0.05a0.5,0.5,0,0,0,0,1h0.05a0.5,0.5,0,1,0,0-1h0Zm2.05,0h-0.05a0.5,0.5,0,0,0,0,1h0.05a0.5,0.5,0,0,0,0-1h0Zm2.06,0h-0.06a0.5,0.5,0,0,0,0,1h0.06a0.5,0.5,0,0,0,0-1h0Zm2.05,0h-0.05a0.5,0.5,0,0,0,0,1h0.05a0.5,0.5,0,0,0,0-1h0Zm2.05,0h-0.05a0.5,0.5,0,0,0,0,1h0.05a0.5,0.5,0,0,0,0-1h0Zm2.05,0h-0.05a0.5,0.5,0,0,0,0,1h0.05a0.5,0.5,0,1,0,0-1h0Zm2.05,0H243.4a0.5,0.5,0,0,0,0,1h0.05a0.5,0.5,0,0,0,0-1h0Zm2.05,0h-0.05a0.5,0.5,0,1,0,0,1h0.05a0.5,0.5,0,0,0,0-1h0Zm2.05,0h-0.05a0.5,0.5,0,1,0,0,1h0.05a0.5,0.5,0,0,0,0-1h0Zm2.05,0h-0.05a0.5,0.5,0,0,0,0,1h0.05a0.5,0.5,0,0,0,0-1h0Zm2.05,0h-0.05a0.5,0.5,0,0,0,0,1h0.05a0.5,0.5,0,0,0,0-1h0Zm2.06,0h-0.06a0.5,0.5,0,1,0,0,1h0.06a0.5,0.5,0,0,0,0-1h0Zm2.05,0h-0.05a0.5,0.5,0,0,0,0,1h0.05a0.5,0.5,0,0,0,0-1h0Zm2.05,0h-0.05a0.5,0.5,0,0,0,0,1h0.05a0.5,0.5,0,0,0,0-1h0Zm2.05,0h-0.05a0.5,0.5,0,0,0,0,1h0.05a0.5,0.5,0,0,0,0-1h0Zm2.05,0H261.9a0.5,0.5,0,0,0,0,1H262a0.5,0.5,0,0,0,0-1h0Zm2.05,0H264a0.5,0.5,0,0,0,0,1H264a0.5,0.5,0,0,0,0-1h0Zm2.05,0H266a0.5,0.5,0,0,0,0,1h0.05a0.5,0.5,0,0,0,0-1h0Zm2.05,0h-0.05a0.5,0.5,0,0,0,0,1h0.05a0.5,0.5,0,0,0,0-1h0Zm2.06,0h-0.06a0.5,0.5,0,0,0,0,1h0.06a0.5,0.5,0,0,0,0-1h0Zm2.05,0h-0.05a0.5,0.5,0,0,0,0,1h0.05a0.5,0.5,0,0,0,0-1h0Zm2.05,0h-0.05a0.5,0.5,0,0,0,0,1h0.05a0.5,0.5,0,0,0,.49-0.41,0.51,0.51,0,0,0,0,.06v0.05a0.5,0.5,0,0,0,.15.29h0.68a0.5,0.5,0,0,0,.15-0.44v0h0a0.5,0.5,0,0,0-.49-0.43H275.2a0.46,0.46,0,0,1-.92-0.09h0Zm0.7-2H274.9a0.5,0.5,0,0,0-.42.57v0.05a0.5,0.5,0,0,0,.49.43h0.07a0.5,0.5,0,0,0,.42-0.56v-0.06a0.5,0.5,0,0,0-.49-0.42h0Zm-0.3-2h-0.07a0.5,0.5,0,0,0-.42.57v0.05a0.5,0.5,0,0,0,.49.43h0.07a0.5,0.5,0,0,0,.42-0.57v-0.05a0.5,0.5,0,0,0-.49-0.43h0Zm-0.3-2h-0.07a0.5,0.5,0,0,0-.42.57v0.05a0.5,0.5,0,0,0,.49.43h0.07a0.5,0.5,0,0,0,.42-0.57v-0.05a0.5,0.5,0,0,0-.49-0.43h0Zm-0.3-2H274a0.5,0.5,0,0,0-.42.57v0.05a0.5,0.5,0,0,0,.49.43h0.07a0.5,0.5,0,0,0,.42-0.57v-0.06a0.5,0.5,0,0,0-.49-0.43h0Zm-0.3-2h-0.07a0.5,0.5,0,0,0-.42.57v0.05a0.5,0.5,0,0,0,.49.43h0.07a0.5,0.5,0,0,0,.42-0.56v-0.06a0.5,0.5,0,0,0-.49-0.42h0Zm-0.3-2h-0.07a0.5,0.5,0,0,0-.42.57v0.05a0.5,0.5,0,0,0,.49.43h0.07a0.5,0.5,0,0,0,.42-0.57v-0.05a0.5,0.5,0,0,0-.49-0.43h0Zm-0.3-2h-0.07a0.5,0.5,0,0,0-.42.57v0.05a0.5,0.5,0,0,0,.49.43h0.07a0.5,0.5,0,0,0,.42-0.57v-0.05a0.5,0.5,0,0,0-.49-0.43h0Zm-0.3-2h-0.07a0.5,0.5,0,0,0-.42.57v0.05a0.5,0.5,0,0,0,.49.43H273a0.5,0.5,0,0,0,.42-0.56v-0.06a0.5,0.5,0,0,0-.49-0.43h0Zm-0.3-2h-0.07a0.5,0.5,0,0,0-.42.57v0.05a0.5,0.5,0,0,0,.49.43h0.07a0.5,0.5,0,0,0,.42-0.57v-0.06a0.5,0.5,0,0,0-.49-0.42h0Zm-0.3-2h-0.07a0.5,0.5,0,0,0-.42.57v0.05a0.5,0.5,0,0,0,.49.43h0.07a0.5,0.5,0,0,0,.42-0.57v-0.05a0.5,0.5,0,0,0-.49-0.43h0Zm-0.3-2h-0.07a0.5,0.5,0,0,0-.42.57v0.05a0.5,0.5,0,0,0,.49.43h0.07a0.5,0.5,0,0,0,.42-0.57v0h0v0a0.5,0.5,0,0,0-.49-0.43h0Zm-0.3-2h-0.07a0.5,0.5,0,0,0-.42.57v0.05a0.5,0.5,0,0,0,.49.43h0.07a0.5,0.5,0,0,0,.42-0.56v-0.06a0.5,0.5,0,0,0-.49-0.43h0Zm-0.3-2h-0.07a0.5,0.5,0,0,0-.42.57v0.05a0.5,0.5,0,0,0,.49.43h0.07a0.5,0.5,0,0,0,.42-0.57v-0.06a0.5,0.5,0,0,0-.49-0.42h0Zm-0.3-2h-0.07a0.5,0.5,0,0,0-.42.57v0.05a0.5,0.5,0,0,0,.49.43h0.07a0.5,0.5,0,0,0,.42-0.57v-0.05a0.5,0.5,0,0,0-.49-0.43h0Zm-0.3-2h-0.07a0.5,0.5,0,0,0-.42.57v0.05a0.5,0.5,0,0,0,.49.43h0.07a0.5,0.5,0,0,0,.42-0.57v0h0a0.5,0.5,0,0,0-.49-0.43h0Zm-0.3-2h-0.07a0.5,0.5,0,0,0-.42.57v0.05a0.5,0.5,0,0,0,.49.43h0.07a0.5,0.5,0,0,0,.42-0.56v-0.06a0.5,0.5,0,0,0-.49-0.43h0Zm-0.3-2h-0.07a0.5,0.5,0,0,0-.42.57v0.05a0.5,0.5,0,0,0,.49.43h0.07a0.5,0.5,0,0,0,.42-0.57V155a0.5,0.5,0,0,0-.49-0.43h0Zm-0.3-2h-0.07a0.5,0.5,0,0,0-.42.57v0.05a0.5,0.5,0,0,0,.49.43H270a0.5,0.5,0,0,0,.42-0.57V153a0.5,0.5,0,0,0-.49-0.43h0Zm-0.3-2h-0.07a0.5,0.5,0,0,0-.42.57v0.05a0.5,0.5,0,0,0,.49.43h0.07a0.5,0.5,0,0,0,.42-0.57V151a0.5,0.5,0,0,0-.49-0.43h0Zm-0.3-2h-0.07a0.5,0.5,0,0,0-.42.57v0.05a0.5,0.5,0,0,0,.49.43h0.07a0.5,0.5,0,0,0,.42-0.56v-0.06a0.5,0.5,0,0,0-.49-0.42h0Zm-0.3-2H269a0.5,0.5,0,0,0-.42.57v0.05a0.5,0.5,0,0,0,.49.43h0.07a0.5,0.5,0,0,0,.42-0.57v-0.05a0.5,0.5,0,0,0-.49-0.43h0Zm-0.3-2h-0.07a0.5,0.5,0,0,0-.42.57v0.05a0.5,0.5,0,0,0,.49.43h0.07a0.5,0.5,0,0,0,.42-0.57h0v-0.05a0.5,0.5,0,0,0-.49-0.43h0Zm-0.3-2h-0.07a0.5,0.5,0,0,0-.42.57V143a0.5,0.5,0,0,0,.49.43h0.07a0.5,0.5,0,0,0,.42-0.56v-0.06a0.5,0.5,0,0,0-.49-0.43h0Zm-0.3-2h-0.07a0.5,0.5,0,0,0-.42.57V141a0.5,0.5,0,0,0,.49.43h0.07a0.5,0.5,0,0,0,.42-0.56v-0.06a0.5,0.5,0,0,0-.49-0.42h0Zm-0.3-2h-0.07a0.5,0.5,0,0,0-.42.57V139a0.5,0.5,0,0,0,.49.43h0.07a0.5,0.5,0,0,0,.42-0.57v-0.05a0.5,0.5,0,0,0-.49-0.43h0Zm-0.3-2h-0.07a0.5,0.5,0,0,0-.42.57v0.05a0.5,0.5,0,0,0,.49.43h0.07a0.5,0.5,0,0,0,.42-0.57v-0.05a0.5,0.5,0,0,0-.49-0.43h0Zm-0.3-2H267.2a0.5,0.5,0,0,0-.42.57v0.05a0.5,0.5,0,0,0,.49.43h0.07a0.5,0.5,0,0,0,.42-0.56v-0.06a0.5,0.5,0,0,0-.49-0.43h0Zm-0.3-2H266.9a0.5,0.5,0,0,0-.42.57v0.05a0.5,0.5,0,0,0,.49.43h0.07a0.5,0.5,0,0,0,.42-0.57v-0.06a0.5,0.5,0,0,0-.49-0.42h0Zm-0.3-2H266.6a0.5,0.5,0,0,0-.42.57v0.05a0.5,0.5,0,0,0,.49.43h0.07a0.5,0.5,0,0,0,.42-0.57v-0.05a0.5,0.5,0,0,0-.49-0.43h0Zm-0.3-2h-0.07a0.5,0.5,0,0,0-.42.57v0.05a0.5,0.5,0,0,0,.49.43h0.07a0.5,0.5,0,0,0,.42-0.57v-0.06a0.5,0.5,0,0,0-.49-0.43h0Zm-0.3-2H266a0.5,0.5,0,0,0-.42.57v0.05a0.5,0.5,0,0,0,.49.43h0.07a0.5,0.5,0,0,0,.42-0.56v-0.06a0.5,0.5,0,0,0-.49-0.43h0Zm-0.3-2h-0.07a0.5,0.5,0,0,0-.42.57v0.05a0.5,0.5,0,0,0,.49.43h0.07a0.5,0.5,0,0,0,.42-0.57v-0.05a0.5,0.5,0,0,0-.49-0.43h0Zm-0.3-2h-0.07a0.5,0.5,0,0,0-.42.57v0.05a0.5,0.5,0,0,0,.49.43h0.07a0.5,0.5,0,0,0,.42-0.57v-0.05a0.5,0.5,0,0,0-.49-0.43h0Zm-0.3-2h-0.07a0.5,0.5,0,0,0-.42.57v0.05a0.5,0.5,0,0,0,.49.43h0.07a0.5,0.5,0,0,0,.42-0.57v0h0a0.5,0.5,0,0,0-.49-0.43h0Zm-0.3-2h-0.07a0.5,0.5,0,0,0-.42.57v0.05a0.5,0.5,0,0,0,.49.43H265a0.5,0.5,0,0,0,.42-0.56v-0.06a0.5,0.5,0,0,0-.49-0.42h0Zm-0.3-2h-0.07a0.5,0.5,0,0,0-.42.57v0.05a0.5,0.5,0,0,0,.49.43h0.07a0.5,0.5,0,0,0,.42-0.57v-0.05a0.5,0.5,0,0,0-.49-0.43h0Zm-0.3-2h-0.07a0.5,0.5,0,0,0-.42.57v0.05a0.5,0.5,0,0,0,.49.43h0.07a0.5,0.5,0,0,0,.42-0.57v-0.05a0.5,0.5,0,0,0-.49-0.43h0Zm-0.3-2h-0.07a0.5,0.5,0,0,0-.42.57v0.05a0.5,0.5,0,0,0,.49.43h0.07a0.5,0.5,0,0,0,.42-0.56v-0.06a0.5,0.5,0,0,0-.49-0.43h0Zm-0.3-2h-0.07a0.5,0.5,0,0,0-.42.57v0.05a0.5,0.5,0,0,0,.49.43h0.07a0.5,0.5,0,0,0,.42-0.56v-0.06a0.5,0.5,0,0,0-.49-0.42h0Zm-0.3-2h-0.07a0.5,0.5,0,0,0-.42.57v0.05a0.5,0.5,0,0,0,.49.43h0.07a0.5,0.5,0,0,0,.42-0.57v-0.05a0.5,0.5,0,0,0-.49-0.43h0Zm-0.3-2H263a0.5,0.5,0,0,0-.42.57v0.05a0.5,0.5,0,0,0,.49.43h0.07a0.5,0.5,0,0,0,.42-0.57v-0.05a0.5,0.5,0,0,0-.49-0.43h0Zm-0.3-2h-0.07a0.5,0.5,0,0,0-.42.57v0.05a0.5,0.5,0,0,0,.49.43h0.07a0.5,0.5,0,0,0,.42-0.56v-0.06a0.5,0.5,0,0,0-.49-0.43h0Zm-0.3-2h-0.07a0.5,0.5,0,0,0-.42.57v0.05a0.5,0.5,0,0,0,.49.43h0.07a0.5,0.5,0,0,0,.42-0.57v-0.06a0.5,0.5,0,0,0-.49-0.42h0Zm-0.3-2h-0.07a0.5,0.5,0,0,0-.42.57v0.05a0.5,0.5,0,0,0,.49.43h0.07a0.5,0.5,0,0,0,.42-0.57v-0.05a0.5,0.5,0,0,0-.49-0.43h0Zm-0.3-2h-0.07a0.5,0.5,0,0,0-.42.57v0.05a0.5,0.5,0,0,0,.49.43H262a0.5,0.5,0,0,0,.42-0.57V98.09a0.5,0.5,0,0,0-.49-0.43h0Zm-0.3-2h-0.07a0.5,0.5,0,0,0-.42.57v0.05a0.5,0.5,0,0,0,.49.43h0.07a0.5,0.5,0,0,0,.42-0.56V96.05a0.5,0.5,0,0,0-.49-0.43h0Zm-0.3-2h-0.07a0.5,0.5,0,0,0-.42.57v0.05a0.5,0.5,0,0,0,.49.43h0.07a0.5,0.5,0,0,0,.42-0.57V94a0.5,0.5,0,0,0-.49-0.42h0Zm-0.3-2H261a0.5,0.5,0,0,0-.42.57v0.05a0.5,0.5,0,0,0,.49.43h0.07a0.5,0.5,0,0,0,.42-0.57V92a0.5,0.5,0,0,0-.49-0.43h0Zm-0.3-2h-0.07a0.5,0.5,0,0,0-.42.57v0.05a0.5,0.5,0,0,0,.49.43h0.07a0.5,0.5,0,0,0,.42-0.57v0h0a0.5,0.5,0,0,0-.49-0.43h0Zm-0.3-2h-0.07a0.5,0.5,0,0,0-.42.57v0.05a0.5,0.5,0,0,0,.49.43h0.07A0.5,0.5,0,0,0,261,88V87.92a0.5,0.5,0,0,0-.49-0.43h0Zm-0.3-2h-0.07a0.5,0.5,0,0,0-.42.57v0.05a0.5,0.5,0,0,0,.49.43h0.07a0.5,0.5,0,0,0,.42-0.57V85.89a0.5,0.5,0,0,0-.49-0.43h0Z" transform="translate(0 0)" style="fill: #ff6b31"/>
    </g>
    <g style="opacity: 0.4">
      <g>
        <line x1="89.32" y1="236.2" x2="89.32" y2="236.2" style="fill: none;stroke: #ff6b31;stroke-linecap: round;stroke-linejoin: round"/>
        <line x1="89.6" y1="234.25" x2="98.58" y2="172.66" style="fill: none;stroke: #ff6b31;stroke-linecap: round;stroke-linejoin: round;stroke-dasharray: 0.001,1.975726842880249"/>
        <line x1="98.72" y1="171.68" x2="98.72" y2="171.68" style="fill: none;stroke: #ff6b31;stroke-linecap: round;stroke-linejoin: round"/>
        <line x1="100.73" y1="171.68" x2="220.05" y2="171.68" style="fill: none;stroke: #ff6b31;stroke-linecap: round;stroke-linejoin: round;stroke-dasharray: 0.001,2.0053794384002686"/>
        <line x1="221.05" y1="171.68" x2="221.05" y2="171.68" style="fill: none;stroke: #ff6b31;stroke-linecap: round;stroke-linejoin: round"/>
        <line x1="221.34" y1="173.64" x2="230.32" y2="235.22" style="fill: none;stroke: #ff6b31;stroke-linecap: round;stroke-linejoin: round;stroke-dasharray: 0.001,1.975726842880249"/>
        <line x1="230.46" y1="236.2" x2="230.46" y2="236.2" style="fill: none;stroke: #ff6b31;stroke-linecap: round;stroke-linejoin: round"/>
        <line x1="228.47" y1="236.2" x2="90.31" y2="236.2" style="fill: none;stroke: #ff6b31;stroke-linecap: round;stroke-linejoin: round;stroke-dasharray: 0.001,1.987870693206787"/>
      </g>
    </g>
    <g style="opacity: 0.6000000000000001">
      <g>
        <line x1="63.87" y1="214.41" x2="63.87" y2="214.41" style="fill: none;stroke: #ff6b31;stroke-linecap: round;stroke-linejoin: round"/>
        <line x1="64.16" y1="212.41" x2="76.52" y2="127.62" style="fill: none;stroke: #ff6b31;stroke-linecap: round;stroke-linejoin: round;stroke-dasharray: 0.001,2.0162129402160645"/>
        <line x1="76.67" y1="126.62" x2="76.67" y2="126.62" style="fill: none;stroke: #ff6b31;stroke-linecap: round;stroke-linejoin: round"/>
        <line x1="78.67" y1="126.62" x2="242.11" y2="126.62" style="fill: none;stroke: #ff6b31;stroke-linecap: round;stroke-linejoin: round;stroke-dasharray: 0.001,2.0053791999816895"/>
        <line x1="243.11" y1="126.62" x2="243.11" y2="126.62" style="fill: none;stroke: #ff6b31;stroke-linecap: round;stroke-linejoin: round"/>
        <line x1="243.4" y1="128.62" x2="255.76" y2="213.41" style="fill: none;stroke: #ff6b31;stroke-linecap: round;stroke-linejoin: round;stroke-dasharray: 0.001,2.0162129402160645"/>
        <line x1="255.91" y1="214.41" x2="255.91" y2="214.41" style="fill: none;stroke: #ff6b31;stroke-linecap: round;stroke-linejoin: round"/>
        <line x1="253.91" y1="214.41" x2="64.87" y2="214.41" style="fill: none;stroke: #ff6b31;stroke-linecap: round;stroke-linejoin: round;stroke-dasharray: 0.001,2.0004303455352783"/>
      </g>
    </g>
    <g>
      <path d="M285.92,3.2C271,15.43,221.68,64,221.68,171.68" transform="translate(0 0)" style="fill: none;stroke: #94a0ab;stroke-linecap: round;stroke-linejoin: round;stroke-width: 1.5px;stroke-dasharray: 0.001,3.5"/>
      <polygon points="290.14 0 282.37 2.15 285.64 3.48 286.1 6.97 290.14 0" style="fill: #94a0ab"/>
    </g>
    <g>
      <path d="M315.11,96.75C284,110.39,230.46,149.06,230.46,237" transform="translate(0 0)" style="fill: none;stroke: #94a0ab;stroke-linecap: round;stroke-linejoin: round;stroke-width: 1.5px;stroke-dasharray: 0.001,3.5"/>
      <polygon points="320 94.74 311.94 94.8 314.75 96.93 314.29 100.43 320 94.74" style="fill: #94a0ab"/>
    </g>
    <g>
      <path d="M34.16,3.2C49.06,15.43,98.4,64,98.4,171.68" transform="translate(0 0)" style="fill: none;stroke: #94a0ab;stroke-linecap: round;stroke-linejoin: round;stroke-width: 1.5px;stroke-dasharray: 0.001,3.5"/>
      <polygon points="29.94 0 33.98 6.98 34.44 3.48 37.71 2.15 29.94 0" style="fill: #94a0ab"/>
    </g>
    <g>
      <path d="M4.89,96.75C36,110.39,89.54,149.06,89.54,237" transform="translate(0 0)" style="fill: none;stroke: #94a0ab;stroke-linecap: round;stroke-linejoin: round;stroke-width: 1.5px;stroke-dasharray: 0.001,3.5"/>
      <polygon points="0 94.74 5.71 100.43 5.25 96.93 8.06 94.8 0 94.74" style="fill: #94a0ab"/>
    </g>
  </g>
</svg>
